%
M48
M72
T01C0.03600
T02C0.03937
T03C0.04000
T04C0.06500
T05C0.09000
T06C0.15748
%
T01
X51071Y52260
X51071Y60060
X60913Y60060
X60913Y52260
T02
X103118Y68520
X126425Y66000
X126425Y76000
X126425Y86000
X126425Y96000
X126425Y106000
X126425Y116000
X126425Y126000
X126425Y136000
X126425Y146000
X126425Y156000
X126425Y166000
X126425Y176000
X126425Y186000
X126425Y196000
X82626Y176689
X66425Y181000
X66425Y171000
X56425Y171000
X56425Y181000
X46425Y181000
X46425Y171000
X51622Y161925
X36425Y171000
X36425Y181000
X75008Y142929
X65913Y123913
X75559Y98559
X89339Y98559
X126425Y56000
X143079Y75685
X147213Y111236
X154654Y111236
X147213Y136315
X186425Y136000
X186425Y146000
X186425Y156000
X186425Y166000
X186425Y176000
X186425Y186000
X186425Y196000
X186425Y126000
X186425Y116000
X186425Y106000
X186425Y96000
X186425Y86000
X186425Y76000
X186425Y66000
X186425Y56000
X186465Y14780
X172685Y14780
X156937Y14780
X143157Y14780
X127409Y14780
T03
X101425Y86000
X101425Y96000
X101425Y106000
X101425Y116000
X101425Y126000
X101425Y136000
X101425Y146000
X101425Y156000
X101425Y166000
X101425Y176000
X15500Y65921
X15500Y55921
T04
X126425Y46000
X186425Y46000
X186425Y206000
X126425Y206000
T05
X79692Y41560
X32292Y41560
T06
X16425Y16000
X16425Y201000
X101425Y201000
M30
