G75*
%MOIN*%
%OFA0B0*%
%FSLAX25Y25*%
%IPPOS*%
%LPD*%
%AMOC8*
5,1,8,0,0,1.08239X$1,22.5*
%
%ADD10C,0.00000*%
%ADD11C,0.00600*%
%ADD12C,0.00500*%
%ADD13C,0.00400*%
%ADD14C,0.00300*%
%ADD15R,0.01280X0.01673*%
%ADD16R,0.01378X0.01378*%
%ADD17C,0.02520*%
%ADD18C,0.13773*%
%ADD19R,0.02756X0.07874*%
%ADD20C,0.00800*%
%ADD21C,0.00100*%
D10*
X0001425Y0001000D02*
X0001425Y0217535D01*
X0198276Y0217535D01*
X0198276Y0001000D01*
X0001425Y0001000D01*
X0008551Y0016000D02*
X0008553Y0016193D01*
X0008560Y0016386D01*
X0008572Y0016579D01*
X0008589Y0016772D01*
X0008610Y0016964D01*
X0008636Y0017155D01*
X0008667Y0017346D01*
X0008702Y0017536D01*
X0008742Y0017725D01*
X0008787Y0017913D01*
X0008836Y0018100D01*
X0008890Y0018286D01*
X0008948Y0018470D01*
X0009011Y0018653D01*
X0009079Y0018834D01*
X0009150Y0019013D01*
X0009227Y0019191D01*
X0009307Y0019367D01*
X0009392Y0019540D01*
X0009481Y0019712D01*
X0009574Y0019881D01*
X0009671Y0020048D01*
X0009773Y0020213D01*
X0009878Y0020375D01*
X0009987Y0020534D01*
X0010101Y0020691D01*
X0010218Y0020844D01*
X0010338Y0020995D01*
X0010463Y0021143D01*
X0010591Y0021288D01*
X0010722Y0021429D01*
X0010857Y0021568D01*
X0010996Y0021703D01*
X0011137Y0021834D01*
X0011282Y0021962D01*
X0011430Y0022087D01*
X0011581Y0022207D01*
X0011734Y0022324D01*
X0011891Y0022438D01*
X0012050Y0022547D01*
X0012212Y0022652D01*
X0012377Y0022754D01*
X0012544Y0022851D01*
X0012713Y0022944D01*
X0012885Y0023033D01*
X0013058Y0023118D01*
X0013234Y0023198D01*
X0013412Y0023275D01*
X0013591Y0023346D01*
X0013772Y0023414D01*
X0013955Y0023477D01*
X0014139Y0023535D01*
X0014325Y0023589D01*
X0014512Y0023638D01*
X0014700Y0023683D01*
X0014889Y0023723D01*
X0015079Y0023758D01*
X0015270Y0023789D01*
X0015461Y0023815D01*
X0015653Y0023836D01*
X0015846Y0023853D01*
X0016039Y0023865D01*
X0016232Y0023872D01*
X0016425Y0023874D01*
X0016618Y0023872D01*
X0016811Y0023865D01*
X0017004Y0023853D01*
X0017197Y0023836D01*
X0017389Y0023815D01*
X0017580Y0023789D01*
X0017771Y0023758D01*
X0017961Y0023723D01*
X0018150Y0023683D01*
X0018338Y0023638D01*
X0018525Y0023589D01*
X0018711Y0023535D01*
X0018895Y0023477D01*
X0019078Y0023414D01*
X0019259Y0023346D01*
X0019438Y0023275D01*
X0019616Y0023198D01*
X0019792Y0023118D01*
X0019965Y0023033D01*
X0020137Y0022944D01*
X0020306Y0022851D01*
X0020473Y0022754D01*
X0020638Y0022652D01*
X0020800Y0022547D01*
X0020959Y0022438D01*
X0021116Y0022324D01*
X0021269Y0022207D01*
X0021420Y0022087D01*
X0021568Y0021962D01*
X0021713Y0021834D01*
X0021854Y0021703D01*
X0021993Y0021568D01*
X0022128Y0021429D01*
X0022259Y0021288D01*
X0022387Y0021143D01*
X0022512Y0020995D01*
X0022632Y0020844D01*
X0022749Y0020691D01*
X0022863Y0020534D01*
X0022972Y0020375D01*
X0023077Y0020213D01*
X0023179Y0020048D01*
X0023276Y0019881D01*
X0023369Y0019712D01*
X0023458Y0019540D01*
X0023543Y0019367D01*
X0023623Y0019191D01*
X0023700Y0019013D01*
X0023771Y0018834D01*
X0023839Y0018653D01*
X0023902Y0018470D01*
X0023960Y0018286D01*
X0024014Y0018100D01*
X0024063Y0017913D01*
X0024108Y0017725D01*
X0024148Y0017536D01*
X0024183Y0017346D01*
X0024214Y0017155D01*
X0024240Y0016964D01*
X0024261Y0016772D01*
X0024278Y0016579D01*
X0024290Y0016386D01*
X0024297Y0016193D01*
X0024299Y0016000D01*
X0024297Y0015807D01*
X0024290Y0015614D01*
X0024278Y0015421D01*
X0024261Y0015228D01*
X0024240Y0015036D01*
X0024214Y0014845D01*
X0024183Y0014654D01*
X0024148Y0014464D01*
X0024108Y0014275D01*
X0024063Y0014087D01*
X0024014Y0013900D01*
X0023960Y0013714D01*
X0023902Y0013530D01*
X0023839Y0013347D01*
X0023771Y0013166D01*
X0023700Y0012987D01*
X0023623Y0012809D01*
X0023543Y0012633D01*
X0023458Y0012460D01*
X0023369Y0012288D01*
X0023276Y0012119D01*
X0023179Y0011952D01*
X0023077Y0011787D01*
X0022972Y0011625D01*
X0022863Y0011466D01*
X0022749Y0011309D01*
X0022632Y0011156D01*
X0022512Y0011005D01*
X0022387Y0010857D01*
X0022259Y0010712D01*
X0022128Y0010571D01*
X0021993Y0010432D01*
X0021854Y0010297D01*
X0021713Y0010166D01*
X0021568Y0010038D01*
X0021420Y0009913D01*
X0021269Y0009793D01*
X0021116Y0009676D01*
X0020959Y0009562D01*
X0020800Y0009453D01*
X0020638Y0009348D01*
X0020473Y0009246D01*
X0020306Y0009149D01*
X0020137Y0009056D01*
X0019965Y0008967D01*
X0019792Y0008882D01*
X0019616Y0008802D01*
X0019438Y0008725D01*
X0019259Y0008654D01*
X0019078Y0008586D01*
X0018895Y0008523D01*
X0018711Y0008465D01*
X0018525Y0008411D01*
X0018338Y0008362D01*
X0018150Y0008317D01*
X0017961Y0008277D01*
X0017771Y0008242D01*
X0017580Y0008211D01*
X0017389Y0008185D01*
X0017197Y0008164D01*
X0017004Y0008147D01*
X0016811Y0008135D01*
X0016618Y0008128D01*
X0016425Y0008126D01*
X0016232Y0008128D01*
X0016039Y0008135D01*
X0015846Y0008147D01*
X0015653Y0008164D01*
X0015461Y0008185D01*
X0015270Y0008211D01*
X0015079Y0008242D01*
X0014889Y0008277D01*
X0014700Y0008317D01*
X0014512Y0008362D01*
X0014325Y0008411D01*
X0014139Y0008465D01*
X0013955Y0008523D01*
X0013772Y0008586D01*
X0013591Y0008654D01*
X0013412Y0008725D01*
X0013234Y0008802D01*
X0013058Y0008882D01*
X0012885Y0008967D01*
X0012713Y0009056D01*
X0012544Y0009149D01*
X0012377Y0009246D01*
X0012212Y0009348D01*
X0012050Y0009453D01*
X0011891Y0009562D01*
X0011734Y0009676D01*
X0011581Y0009793D01*
X0011430Y0009913D01*
X0011282Y0010038D01*
X0011137Y0010166D01*
X0010996Y0010297D01*
X0010857Y0010432D01*
X0010722Y0010571D01*
X0010591Y0010712D01*
X0010463Y0010857D01*
X0010338Y0011005D01*
X0010218Y0011156D01*
X0010101Y0011309D01*
X0009987Y0011466D01*
X0009878Y0011625D01*
X0009773Y0011787D01*
X0009671Y0011952D01*
X0009574Y0012119D01*
X0009481Y0012288D01*
X0009392Y0012460D01*
X0009307Y0012633D01*
X0009227Y0012809D01*
X0009150Y0012987D01*
X0009079Y0013166D01*
X0009011Y0013347D01*
X0008948Y0013530D01*
X0008890Y0013714D01*
X0008836Y0013900D01*
X0008787Y0014087D01*
X0008742Y0014275D01*
X0008702Y0014464D01*
X0008667Y0014654D01*
X0008636Y0014845D01*
X0008610Y0015036D01*
X0008589Y0015228D01*
X0008572Y0015421D01*
X0008560Y0015614D01*
X0008553Y0015807D01*
X0008551Y0016000D01*
X0094575Y0025783D02*
X0094772Y0025783D01*
X0111701Y0026965D02*
X0112488Y0026965D01*
X0123175Y0046000D02*
X0123177Y0046113D01*
X0123183Y0046227D01*
X0123193Y0046340D01*
X0123207Y0046452D01*
X0123224Y0046564D01*
X0123246Y0046676D01*
X0123272Y0046786D01*
X0123301Y0046896D01*
X0123334Y0047004D01*
X0123371Y0047112D01*
X0123412Y0047217D01*
X0123456Y0047322D01*
X0123504Y0047425D01*
X0123555Y0047526D01*
X0123610Y0047625D01*
X0123669Y0047722D01*
X0123731Y0047817D01*
X0123796Y0047910D01*
X0123864Y0048001D01*
X0123935Y0048089D01*
X0124010Y0048175D01*
X0124087Y0048258D01*
X0124167Y0048338D01*
X0124250Y0048415D01*
X0124336Y0048490D01*
X0124424Y0048561D01*
X0124515Y0048629D01*
X0124608Y0048694D01*
X0124703Y0048756D01*
X0124800Y0048815D01*
X0124899Y0048870D01*
X0125000Y0048921D01*
X0125103Y0048969D01*
X0125208Y0049013D01*
X0125313Y0049054D01*
X0125421Y0049091D01*
X0125529Y0049124D01*
X0125639Y0049153D01*
X0125749Y0049179D01*
X0125861Y0049201D01*
X0125973Y0049218D01*
X0126085Y0049232D01*
X0126198Y0049242D01*
X0126312Y0049248D01*
X0126425Y0049250D01*
X0126538Y0049248D01*
X0126652Y0049242D01*
X0126765Y0049232D01*
X0126877Y0049218D01*
X0126989Y0049201D01*
X0127101Y0049179D01*
X0127211Y0049153D01*
X0127321Y0049124D01*
X0127429Y0049091D01*
X0127537Y0049054D01*
X0127642Y0049013D01*
X0127747Y0048969D01*
X0127850Y0048921D01*
X0127951Y0048870D01*
X0128050Y0048815D01*
X0128147Y0048756D01*
X0128242Y0048694D01*
X0128335Y0048629D01*
X0128426Y0048561D01*
X0128514Y0048490D01*
X0128600Y0048415D01*
X0128683Y0048338D01*
X0128763Y0048258D01*
X0128840Y0048175D01*
X0128915Y0048089D01*
X0128986Y0048001D01*
X0129054Y0047910D01*
X0129119Y0047817D01*
X0129181Y0047722D01*
X0129240Y0047625D01*
X0129295Y0047526D01*
X0129346Y0047425D01*
X0129394Y0047322D01*
X0129438Y0047217D01*
X0129479Y0047112D01*
X0129516Y0047004D01*
X0129549Y0046896D01*
X0129578Y0046786D01*
X0129604Y0046676D01*
X0129626Y0046564D01*
X0129643Y0046452D01*
X0129657Y0046340D01*
X0129667Y0046227D01*
X0129673Y0046113D01*
X0129675Y0046000D01*
X0129673Y0045887D01*
X0129667Y0045773D01*
X0129657Y0045660D01*
X0129643Y0045548D01*
X0129626Y0045436D01*
X0129604Y0045324D01*
X0129578Y0045214D01*
X0129549Y0045104D01*
X0129516Y0044996D01*
X0129479Y0044888D01*
X0129438Y0044783D01*
X0129394Y0044678D01*
X0129346Y0044575D01*
X0129295Y0044474D01*
X0129240Y0044375D01*
X0129181Y0044278D01*
X0129119Y0044183D01*
X0129054Y0044090D01*
X0128986Y0043999D01*
X0128915Y0043911D01*
X0128840Y0043825D01*
X0128763Y0043742D01*
X0128683Y0043662D01*
X0128600Y0043585D01*
X0128514Y0043510D01*
X0128426Y0043439D01*
X0128335Y0043371D01*
X0128242Y0043306D01*
X0128147Y0043244D01*
X0128050Y0043185D01*
X0127951Y0043130D01*
X0127850Y0043079D01*
X0127747Y0043031D01*
X0127642Y0042987D01*
X0127537Y0042946D01*
X0127429Y0042909D01*
X0127321Y0042876D01*
X0127211Y0042847D01*
X0127101Y0042821D01*
X0126989Y0042799D01*
X0126877Y0042782D01*
X0126765Y0042768D01*
X0126652Y0042758D01*
X0126538Y0042752D01*
X0126425Y0042750D01*
X0126312Y0042752D01*
X0126198Y0042758D01*
X0126085Y0042768D01*
X0125973Y0042782D01*
X0125861Y0042799D01*
X0125749Y0042821D01*
X0125639Y0042847D01*
X0125529Y0042876D01*
X0125421Y0042909D01*
X0125313Y0042946D01*
X0125208Y0042987D01*
X0125103Y0043031D01*
X0125000Y0043079D01*
X0124899Y0043130D01*
X0124800Y0043185D01*
X0124703Y0043244D01*
X0124608Y0043306D01*
X0124515Y0043371D01*
X0124424Y0043439D01*
X0124336Y0043510D01*
X0124250Y0043585D01*
X0124167Y0043662D01*
X0124087Y0043742D01*
X0124010Y0043825D01*
X0123935Y0043911D01*
X0123864Y0043999D01*
X0123796Y0044090D01*
X0123731Y0044183D01*
X0123669Y0044278D01*
X0123610Y0044375D01*
X0123555Y0044474D01*
X0123504Y0044575D01*
X0123456Y0044678D01*
X0123412Y0044783D01*
X0123371Y0044888D01*
X0123334Y0044996D01*
X0123301Y0045104D01*
X0123272Y0045214D01*
X0123246Y0045324D01*
X0123224Y0045436D01*
X0123207Y0045548D01*
X0123193Y0045660D01*
X0123183Y0045773D01*
X0123177Y0045887D01*
X0123175Y0046000D01*
X0183175Y0046000D02*
X0183177Y0046113D01*
X0183183Y0046227D01*
X0183193Y0046340D01*
X0183207Y0046452D01*
X0183224Y0046564D01*
X0183246Y0046676D01*
X0183272Y0046786D01*
X0183301Y0046896D01*
X0183334Y0047004D01*
X0183371Y0047112D01*
X0183412Y0047217D01*
X0183456Y0047322D01*
X0183504Y0047425D01*
X0183555Y0047526D01*
X0183610Y0047625D01*
X0183669Y0047722D01*
X0183731Y0047817D01*
X0183796Y0047910D01*
X0183864Y0048001D01*
X0183935Y0048089D01*
X0184010Y0048175D01*
X0184087Y0048258D01*
X0184167Y0048338D01*
X0184250Y0048415D01*
X0184336Y0048490D01*
X0184424Y0048561D01*
X0184515Y0048629D01*
X0184608Y0048694D01*
X0184703Y0048756D01*
X0184800Y0048815D01*
X0184899Y0048870D01*
X0185000Y0048921D01*
X0185103Y0048969D01*
X0185208Y0049013D01*
X0185313Y0049054D01*
X0185421Y0049091D01*
X0185529Y0049124D01*
X0185639Y0049153D01*
X0185749Y0049179D01*
X0185861Y0049201D01*
X0185973Y0049218D01*
X0186085Y0049232D01*
X0186198Y0049242D01*
X0186312Y0049248D01*
X0186425Y0049250D01*
X0186538Y0049248D01*
X0186652Y0049242D01*
X0186765Y0049232D01*
X0186877Y0049218D01*
X0186989Y0049201D01*
X0187101Y0049179D01*
X0187211Y0049153D01*
X0187321Y0049124D01*
X0187429Y0049091D01*
X0187537Y0049054D01*
X0187642Y0049013D01*
X0187747Y0048969D01*
X0187850Y0048921D01*
X0187951Y0048870D01*
X0188050Y0048815D01*
X0188147Y0048756D01*
X0188242Y0048694D01*
X0188335Y0048629D01*
X0188426Y0048561D01*
X0188514Y0048490D01*
X0188600Y0048415D01*
X0188683Y0048338D01*
X0188763Y0048258D01*
X0188840Y0048175D01*
X0188915Y0048089D01*
X0188986Y0048001D01*
X0189054Y0047910D01*
X0189119Y0047817D01*
X0189181Y0047722D01*
X0189240Y0047625D01*
X0189295Y0047526D01*
X0189346Y0047425D01*
X0189394Y0047322D01*
X0189438Y0047217D01*
X0189479Y0047112D01*
X0189516Y0047004D01*
X0189549Y0046896D01*
X0189578Y0046786D01*
X0189604Y0046676D01*
X0189626Y0046564D01*
X0189643Y0046452D01*
X0189657Y0046340D01*
X0189667Y0046227D01*
X0189673Y0046113D01*
X0189675Y0046000D01*
X0189673Y0045887D01*
X0189667Y0045773D01*
X0189657Y0045660D01*
X0189643Y0045548D01*
X0189626Y0045436D01*
X0189604Y0045324D01*
X0189578Y0045214D01*
X0189549Y0045104D01*
X0189516Y0044996D01*
X0189479Y0044888D01*
X0189438Y0044783D01*
X0189394Y0044678D01*
X0189346Y0044575D01*
X0189295Y0044474D01*
X0189240Y0044375D01*
X0189181Y0044278D01*
X0189119Y0044183D01*
X0189054Y0044090D01*
X0188986Y0043999D01*
X0188915Y0043911D01*
X0188840Y0043825D01*
X0188763Y0043742D01*
X0188683Y0043662D01*
X0188600Y0043585D01*
X0188514Y0043510D01*
X0188426Y0043439D01*
X0188335Y0043371D01*
X0188242Y0043306D01*
X0188147Y0043244D01*
X0188050Y0043185D01*
X0187951Y0043130D01*
X0187850Y0043079D01*
X0187747Y0043031D01*
X0187642Y0042987D01*
X0187537Y0042946D01*
X0187429Y0042909D01*
X0187321Y0042876D01*
X0187211Y0042847D01*
X0187101Y0042821D01*
X0186989Y0042799D01*
X0186877Y0042782D01*
X0186765Y0042768D01*
X0186652Y0042758D01*
X0186538Y0042752D01*
X0186425Y0042750D01*
X0186312Y0042752D01*
X0186198Y0042758D01*
X0186085Y0042768D01*
X0185973Y0042782D01*
X0185861Y0042799D01*
X0185749Y0042821D01*
X0185639Y0042847D01*
X0185529Y0042876D01*
X0185421Y0042909D01*
X0185313Y0042946D01*
X0185208Y0042987D01*
X0185103Y0043031D01*
X0185000Y0043079D01*
X0184899Y0043130D01*
X0184800Y0043185D01*
X0184703Y0043244D01*
X0184608Y0043306D01*
X0184515Y0043371D01*
X0184424Y0043439D01*
X0184336Y0043510D01*
X0184250Y0043585D01*
X0184167Y0043662D01*
X0184087Y0043742D01*
X0184010Y0043825D01*
X0183935Y0043911D01*
X0183864Y0043999D01*
X0183796Y0044090D01*
X0183731Y0044183D01*
X0183669Y0044278D01*
X0183610Y0044375D01*
X0183555Y0044474D01*
X0183504Y0044575D01*
X0183456Y0044678D01*
X0183412Y0044783D01*
X0183371Y0044888D01*
X0183334Y0044996D01*
X0183301Y0045104D01*
X0183272Y0045214D01*
X0183246Y0045324D01*
X0183224Y0045436D01*
X0183207Y0045548D01*
X0183193Y0045660D01*
X0183183Y0045773D01*
X0183177Y0045887D01*
X0183175Y0046000D01*
X0093551Y0201000D02*
X0093553Y0201193D01*
X0093560Y0201386D01*
X0093572Y0201579D01*
X0093589Y0201772D01*
X0093610Y0201964D01*
X0093636Y0202155D01*
X0093667Y0202346D01*
X0093702Y0202536D01*
X0093742Y0202725D01*
X0093787Y0202913D01*
X0093836Y0203100D01*
X0093890Y0203286D01*
X0093948Y0203470D01*
X0094011Y0203653D01*
X0094079Y0203834D01*
X0094150Y0204013D01*
X0094227Y0204191D01*
X0094307Y0204367D01*
X0094392Y0204540D01*
X0094481Y0204712D01*
X0094574Y0204881D01*
X0094671Y0205048D01*
X0094773Y0205213D01*
X0094878Y0205375D01*
X0094987Y0205534D01*
X0095101Y0205691D01*
X0095218Y0205844D01*
X0095338Y0205995D01*
X0095463Y0206143D01*
X0095591Y0206288D01*
X0095722Y0206429D01*
X0095857Y0206568D01*
X0095996Y0206703D01*
X0096137Y0206834D01*
X0096282Y0206962D01*
X0096430Y0207087D01*
X0096581Y0207207D01*
X0096734Y0207324D01*
X0096891Y0207438D01*
X0097050Y0207547D01*
X0097212Y0207652D01*
X0097377Y0207754D01*
X0097544Y0207851D01*
X0097713Y0207944D01*
X0097885Y0208033D01*
X0098058Y0208118D01*
X0098234Y0208198D01*
X0098412Y0208275D01*
X0098591Y0208346D01*
X0098772Y0208414D01*
X0098955Y0208477D01*
X0099139Y0208535D01*
X0099325Y0208589D01*
X0099512Y0208638D01*
X0099700Y0208683D01*
X0099889Y0208723D01*
X0100079Y0208758D01*
X0100270Y0208789D01*
X0100461Y0208815D01*
X0100653Y0208836D01*
X0100846Y0208853D01*
X0101039Y0208865D01*
X0101232Y0208872D01*
X0101425Y0208874D01*
X0101618Y0208872D01*
X0101811Y0208865D01*
X0102004Y0208853D01*
X0102197Y0208836D01*
X0102389Y0208815D01*
X0102580Y0208789D01*
X0102771Y0208758D01*
X0102961Y0208723D01*
X0103150Y0208683D01*
X0103338Y0208638D01*
X0103525Y0208589D01*
X0103711Y0208535D01*
X0103895Y0208477D01*
X0104078Y0208414D01*
X0104259Y0208346D01*
X0104438Y0208275D01*
X0104616Y0208198D01*
X0104792Y0208118D01*
X0104965Y0208033D01*
X0105137Y0207944D01*
X0105306Y0207851D01*
X0105473Y0207754D01*
X0105638Y0207652D01*
X0105800Y0207547D01*
X0105959Y0207438D01*
X0106116Y0207324D01*
X0106269Y0207207D01*
X0106420Y0207087D01*
X0106568Y0206962D01*
X0106713Y0206834D01*
X0106854Y0206703D01*
X0106993Y0206568D01*
X0107128Y0206429D01*
X0107259Y0206288D01*
X0107387Y0206143D01*
X0107512Y0205995D01*
X0107632Y0205844D01*
X0107749Y0205691D01*
X0107863Y0205534D01*
X0107972Y0205375D01*
X0108077Y0205213D01*
X0108179Y0205048D01*
X0108276Y0204881D01*
X0108369Y0204712D01*
X0108458Y0204540D01*
X0108543Y0204367D01*
X0108623Y0204191D01*
X0108700Y0204013D01*
X0108771Y0203834D01*
X0108839Y0203653D01*
X0108902Y0203470D01*
X0108960Y0203286D01*
X0109014Y0203100D01*
X0109063Y0202913D01*
X0109108Y0202725D01*
X0109148Y0202536D01*
X0109183Y0202346D01*
X0109214Y0202155D01*
X0109240Y0201964D01*
X0109261Y0201772D01*
X0109278Y0201579D01*
X0109290Y0201386D01*
X0109297Y0201193D01*
X0109299Y0201000D01*
X0109297Y0200807D01*
X0109290Y0200614D01*
X0109278Y0200421D01*
X0109261Y0200228D01*
X0109240Y0200036D01*
X0109214Y0199845D01*
X0109183Y0199654D01*
X0109148Y0199464D01*
X0109108Y0199275D01*
X0109063Y0199087D01*
X0109014Y0198900D01*
X0108960Y0198714D01*
X0108902Y0198530D01*
X0108839Y0198347D01*
X0108771Y0198166D01*
X0108700Y0197987D01*
X0108623Y0197809D01*
X0108543Y0197633D01*
X0108458Y0197460D01*
X0108369Y0197288D01*
X0108276Y0197119D01*
X0108179Y0196952D01*
X0108077Y0196787D01*
X0107972Y0196625D01*
X0107863Y0196466D01*
X0107749Y0196309D01*
X0107632Y0196156D01*
X0107512Y0196005D01*
X0107387Y0195857D01*
X0107259Y0195712D01*
X0107128Y0195571D01*
X0106993Y0195432D01*
X0106854Y0195297D01*
X0106713Y0195166D01*
X0106568Y0195038D01*
X0106420Y0194913D01*
X0106269Y0194793D01*
X0106116Y0194676D01*
X0105959Y0194562D01*
X0105800Y0194453D01*
X0105638Y0194348D01*
X0105473Y0194246D01*
X0105306Y0194149D01*
X0105137Y0194056D01*
X0104965Y0193967D01*
X0104792Y0193882D01*
X0104616Y0193802D01*
X0104438Y0193725D01*
X0104259Y0193654D01*
X0104078Y0193586D01*
X0103895Y0193523D01*
X0103711Y0193465D01*
X0103525Y0193411D01*
X0103338Y0193362D01*
X0103150Y0193317D01*
X0102961Y0193277D01*
X0102771Y0193242D01*
X0102580Y0193211D01*
X0102389Y0193185D01*
X0102197Y0193164D01*
X0102004Y0193147D01*
X0101811Y0193135D01*
X0101618Y0193128D01*
X0101425Y0193126D01*
X0101232Y0193128D01*
X0101039Y0193135D01*
X0100846Y0193147D01*
X0100653Y0193164D01*
X0100461Y0193185D01*
X0100270Y0193211D01*
X0100079Y0193242D01*
X0099889Y0193277D01*
X0099700Y0193317D01*
X0099512Y0193362D01*
X0099325Y0193411D01*
X0099139Y0193465D01*
X0098955Y0193523D01*
X0098772Y0193586D01*
X0098591Y0193654D01*
X0098412Y0193725D01*
X0098234Y0193802D01*
X0098058Y0193882D01*
X0097885Y0193967D01*
X0097713Y0194056D01*
X0097544Y0194149D01*
X0097377Y0194246D01*
X0097212Y0194348D01*
X0097050Y0194453D01*
X0096891Y0194562D01*
X0096734Y0194676D01*
X0096581Y0194793D01*
X0096430Y0194913D01*
X0096282Y0195038D01*
X0096137Y0195166D01*
X0095996Y0195297D01*
X0095857Y0195432D01*
X0095722Y0195571D01*
X0095591Y0195712D01*
X0095463Y0195857D01*
X0095338Y0196005D01*
X0095218Y0196156D01*
X0095101Y0196309D01*
X0094987Y0196466D01*
X0094878Y0196625D01*
X0094773Y0196787D01*
X0094671Y0196952D01*
X0094574Y0197119D01*
X0094481Y0197288D01*
X0094392Y0197460D01*
X0094307Y0197633D01*
X0094227Y0197809D01*
X0094150Y0197987D01*
X0094079Y0198166D01*
X0094011Y0198347D01*
X0093948Y0198530D01*
X0093890Y0198714D01*
X0093836Y0198900D01*
X0093787Y0199087D01*
X0093742Y0199275D01*
X0093702Y0199464D01*
X0093667Y0199654D01*
X0093636Y0199845D01*
X0093610Y0200036D01*
X0093589Y0200228D01*
X0093572Y0200421D01*
X0093560Y0200614D01*
X0093553Y0200807D01*
X0093551Y0201000D01*
X0123175Y0206000D02*
X0123177Y0206113D01*
X0123183Y0206227D01*
X0123193Y0206340D01*
X0123207Y0206452D01*
X0123224Y0206564D01*
X0123246Y0206676D01*
X0123272Y0206786D01*
X0123301Y0206896D01*
X0123334Y0207004D01*
X0123371Y0207112D01*
X0123412Y0207217D01*
X0123456Y0207322D01*
X0123504Y0207425D01*
X0123555Y0207526D01*
X0123610Y0207625D01*
X0123669Y0207722D01*
X0123731Y0207817D01*
X0123796Y0207910D01*
X0123864Y0208001D01*
X0123935Y0208089D01*
X0124010Y0208175D01*
X0124087Y0208258D01*
X0124167Y0208338D01*
X0124250Y0208415D01*
X0124336Y0208490D01*
X0124424Y0208561D01*
X0124515Y0208629D01*
X0124608Y0208694D01*
X0124703Y0208756D01*
X0124800Y0208815D01*
X0124899Y0208870D01*
X0125000Y0208921D01*
X0125103Y0208969D01*
X0125208Y0209013D01*
X0125313Y0209054D01*
X0125421Y0209091D01*
X0125529Y0209124D01*
X0125639Y0209153D01*
X0125749Y0209179D01*
X0125861Y0209201D01*
X0125973Y0209218D01*
X0126085Y0209232D01*
X0126198Y0209242D01*
X0126312Y0209248D01*
X0126425Y0209250D01*
X0126538Y0209248D01*
X0126652Y0209242D01*
X0126765Y0209232D01*
X0126877Y0209218D01*
X0126989Y0209201D01*
X0127101Y0209179D01*
X0127211Y0209153D01*
X0127321Y0209124D01*
X0127429Y0209091D01*
X0127537Y0209054D01*
X0127642Y0209013D01*
X0127747Y0208969D01*
X0127850Y0208921D01*
X0127951Y0208870D01*
X0128050Y0208815D01*
X0128147Y0208756D01*
X0128242Y0208694D01*
X0128335Y0208629D01*
X0128426Y0208561D01*
X0128514Y0208490D01*
X0128600Y0208415D01*
X0128683Y0208338D01*
X0128763Y0208258D01*
X0128840Y0208175D01*
X0128915Y0208089D01*
X0128986Y0208001D01*
X0129054Y0207910D01*
X0129119Y0207817D01*
X0129181Y0207722D01*
X0129240Y0207625D01*
X0129295Y0207526D01*
X0129346Y0207425D01*
X0129394Y0207322D01*
X0129438Y0207217D01*
X0129479Y0207112D01*
X0129516Y0207004D01*
X0129549Y0206896D01*
X0129578Y0206786D01*
X0129604Y0206676D01*
X0129626Y0206564D01*
X0129643Y0206452D01*
X0129657Y0206340D01*
X0129667Y0206227D01*
X0129673Y0206113D01*
X0129675Y0206000D01*
X0129673Y0205887D01*
X0129667Y0205773D01*
X0129657Y0205660D01*
X0129643Y0205548D01*
X0129626Y0205436D01*
X0129604Y0205324D01*
X0129578Y0205214D01*
X0129549Y0205104D01*
X0129516Y0204996D01*
X0129479Y0204888D01*
X0129438Y0204783D01*
X0129394Y0204678D01*
X0129346Y0204575D01*
X0129295Y0204474D01*
X0129240Y0204375D01*
X0129181Y0204278D01*
X0129119Y0204183D01*
X0129054Y0204090D01*
X0128986Y0203999D01*
X0128915Y0203911D01*
X0128840Y0203825D01*
X0128763Y0203742D01*
X0128683Y0203662D01*
X0128600Y0203585D01*
X0128514Y0203510D01*
X0128426Y0203439D01*
X0128335Y0203371D01*
X0128242Y0203306D01*
X0128147Y0203244D01*
X0128050Y0203185D01*
X0127951Y0203130D01*
X0127850Y0203079D01*
X0127747Y0203031D01*
X0127642Y0202987D01*
X0127537Y0202946D01*
X0127429Y0202909D01*
X0127321Y0202876D01*
X0127211Y0202847D01*
X0127101Y0202821D01*
X0126989Y0202799D01*
X0126877Y0202782D01*
X0126765Y0202768D01*
X0126652Y0202758D01*
X0126538Y0202752D01*
X0126425Y0202750D01*
X0126312Y0202752D01*
X0126198Y0202758D01*
X0126085Y0202768D01*
X0125973Y0202782D01*
X0125861Y0202799D01*
X0125749Y0202821D01*
X0125639Y0202847D01*
X0125529Y0202876D01*
X0125421Y0202909D01*
X0125313Y0202946D01*
X0125208Y0202987D01*
X0125103Y0203031D01*
X0125000Y0203079D01*
X0124899Y0203130D01*
X0124800Y0203185D01*
X0124703Y0203244D01*
X0124608Y0203306D01*
X0124515Y0203371D01*
X0124424Y0203439D01*
X0124336Y0203510D01*
X0124250Y0203585D01*
X0124167Y0203662D01*
X0124087Y0203742D01*
X0124010Y0203825D01*
X0123935Y0203911D01*
X0123864Y0203999D01*
X0123796Y0204090D01*
X0123731Y0204183D01*
X0123669Y0204278D01*
X0123610Y0204375D01*
X0123555Y0204474D01*
X0123504Y0204575D01*
X0123456Y0204678D01*
X0123412Y0204783D01*
X0123371Y0204888D01*
X0123334Y0204996D01*
X0123301Y0205104D01*
X0123272Y0205214D01*
X0123246Y0205324D01*
X0123224Y0205436D01*
X0123207Y0205548D01*
X0123193Y0205660D01*
X0123183Y0205773D01*
X0123177Y0205887D01*
X0123175Y0206000D01*
X0183175Y0206000D02*
X0183177Y0206113D01*
X0183183Y0206227D01*
X0183193Y0206340D01*
X0183207Y0206452D01*
X0183224Y0206564D01*
X0183246Y0206676D01*
X0183272Y0206786D01*
X0183301Y0206896D01*
X0183334Y0207004D01*
X0183371Y0207112D01*
X0183412Y0207217D01*
X0183456Y0207322D01*
X0183504Y0207425D01*
X0183555Y0207526D01*
X0183610Y0207625D01*
X0183669Y0207722D01*
X0183731Y0207817D01*
X0183796Y0207910D01*
X0183864Y0208001D01*
X0183935Y0208089D01*
X0184010Y0208175D01*
X0184087Y0208258D01*
X0184167Y0208338D01*
X0184250Y0208415D01*
X0184336Y0208490D01*
X0184424Y0208561D01*
X0184515Y0208629D01*
X0184608Y0208694D01*
X0184703Y0208756D01*
X0184800Y0208815D01*
X0184899Y0208870D01*
X0185000Y0208921D01*
X0185103Y0208969D01*
X0185208Y0209013D01*
X0185313Y0209054D01*
X0185421Y0209091D01*
X0185529Y0209124D01*
X0185639Y0209153D01*
X0185749Y0209179D01*
X0185861Y0209201D01*
X0185973Y0209218D01*
X0186085Y0209232D01*
X0186198Y0209242D01*
X0186312Y0209248D01*
X0186425Y0209250D01*
X0186538Y0209248D01*
X0186652Y0209242D01*
X0186765Y0209232D01*
X0186877Y0209218D01*
X0186989Y0209201D01*
X0187101Y0209179D01*
X0187211Y0209153D01*
X0187321Y0209124D01*
X0187429Y0209091D01*
X0187537Y0209054D01*
X0187642Y0209013D01*
X0187747Y0208969D01*
X0187850Y0208921D01*
X0187951Y0208870D01*
X0188050Y0208815D01*
X0188147Y0208756D01*
X0188242Y0208694D01*
X0188335Y0208629D01*
X0188426Y0208561D01*
X0188514Y0208490D01*
X0188600Y0208415D01*
X0188683Y0208338D01*
X0188763Y0208258D01*
X0188840Y0208175D01*
X0188915Y0208089D01*
X0188986Y0208001D01*
X0189054Y0207910D01*
X0189119Y0207817D01*
X0189181Y0207722D01*
X0189240Y0207625D01*
X0189295Y0207526D01*
X0189346Y0207425D01*
X0189394Y0207322D01*
X0189438Y0207217D01*
X0189479Y0207112D01*
X0189516Y0207004D01*
X0189549Y0206896D01*
X0189578Y0206786D01*
X0189604Y0206676D01*
X0189626Y0206564D01*
X0189643Y0206452D01*
X0189657Y0206340D01*
X0189667Y0206227D01*
X0189673Y0206113D01*
X0189675Y0206000D01*
X0189673Y0205887D01*
X0189667Y0205773D01*
X0189657Y0205660D01*
X0189643Y0205548D01*
X0189626Y0205436D01*
X0189604Y0205324D01*
X0189578Y0205214D01*
X0189549Y0205104D01*
X0189516Y0204996D01*
X0189479Y0204888D01*
X0189438Y0204783D01*
X0189394Y0204678D01*
X0189346Y0204575D01*
X0189295Y0204474D01*
X0189240Y0204375D01*
X0189181Y0204278D01*
X0189119Y0204183D01*
X0189054Y0204090D01*
X0188986Y0203999D01*
X0188915Y0203911D01*
X0188840Y0203825D01*
X0188763Y0203742D01*
X0188683Y0203662D01*
X0188600Y0203585D01*
X0188514Y0203510D01*
X0188426Y0203439D01*
X0188335Y0203371D01*
X0188242Y0203306D01*
X0188147Y0203244D01*
X0188050Y0203185D01*
X0187951Y0203130D01*
X0187850Y0203079D01*
X0187747Y0203031D01*
X0187642Y0202987D01*
X0187537Y0202946D01*
X0187429Y0202909D01*
X0187321Y0202876D01*
X0187211Y0202847D01*
X0187101Y0202821D01*
X0186989Y0202799D01*
X0186877Y0202782D01*
X0186765Y0202768D01*
X0186652Y0202758D01*
X0186538Y0202752D01*
X0186425Y0202750D01*
X0186312Y0202752D01*
X0186198Y0202758D01*
X0186085Y0202768D01*
X0185973Y0202782D01*
X0185861Y0202799D01*
X0185749Y0202821D01*
X0185639Y0202847D01*
X0185529Y0202876D01*
X0185421Y0202909D01*
X0185313Y0202946D01*
X0185208Y0202987D01*
X0185103Y0203031D01*
X0185000Y0203079D01*
X0184899Y0203130D01*
X0184800Y0203185D01*
X0184703Y0203244D01*
X0184608Y0203306D01*
X0184515Y0203371D01*
X0184424Y0203439D01*
X0184336Y0203510D01*
X0184250Y0203585D01*
X0184167Y0203662D01*
X0184087Y0203742D01*
X0184010Y0203825D01*
X0183935Y0203911D01*
X0183864Y0203999D01*
X0183796Y0204090D01*
X0183731Y0204183D01*
X0183669Y0204278D01*
X0183610Y0204375D01*
X0183555Y0204474D01*
X0183504Y0204575D01*
X0183456Y0204678D01*
X0183412Y0204783D01*
X0183371Y0204888D01*
X0183334Y0204996D01*
X0183301Y0205104D01*
X0183272Y0205214D01*
X0183246Y0205324D01*
X0183224Y0205436D01*
X0183207Y0205548D01*
X0183193Y0205660D01*
X0183183Y0205773D01*
X0183177Y0205887D01*
X0183175Y0206000D01*
X0008551Y0201000D02*
X0008553Y0201193D01*
X0008560Y0201386D01*
X0008572Y0201579D01*
X0008589Y0201772D01*
X0008610Y0201964D01*
X0008636Y0202155D01*
X0008667Y0202346D01*
X0008702Y0202536D01*
X0008742Y0202725D01*
X0008787Y0202913D01*
X0008836Y0203100D01*
X0008890Y0203286D01*
X0008948Y0203470D01*
X0009011Y0203653D01*
X0009079Y0203834D01*
X0009150Y0204013D01*
X0009227Y0204191D01*
X0009307Y0204367D01*
X0009392Y0204540D01*
X0009481Y0204712D01*
X0009574Y0204881D01*
X0009671Y0205048D01*
X0009773Y0205213D01*
X0009878Y0205375D01*
X0009987Y0205534D01*
X0010101Y0205691D01*
X0010218Y0205844D01*
X0010338Y0205995D01*
X0010463Y0206143D01*
X0010591Y0206288D01*
X0010722Y0206429D01*
X0010857Y0206568D01*
X0010996Y0206703D01*
X0011137Y0206834D01*
X0011282Y0206962D01*
X0011430Y0207087D01*
X0011581Y0207207D01*
X0011734Y0207324D01*
X0011891Y0207438D01*
X0012050Y0207547D01*
X0012212Y0207652D01*
X0012377Y0207754D01*
X0012544Y0207851D01*
X0012713Y0207944D01*
X0012885Y0208033D01*
X0013058Y0208118D01*
X0013234Y0208198D01*
X0013412Y0208275D01*
X0013591Y0208346D01*
X0013772Y0208414D01*
X0013955Y0208477D01*
X0014139Y0208535D01*
X0014325Y0208589D01*
X0014512Y0208638D01*
X0014700Y0208683D01*
X0014889Y0208723D01*
X0015079Y0208758D01*
X0015270Y0208789D01*
X0015461Y0208815D01*
X0015653Y0208836D01*
X0015846Y0208853D01*
X0016039Y0208865D01*
X0016232Y0208872D01*
X0016425Y0208874D01*
X0016618Y0208872D01*
X0016811Y0208865D01*
X0017004Y0208853D01*
X0017197Y0208836D01*
X0017389Y0208815D01*
X0017580Y0208789D01*
X0017771Y0208758D01*
X0017961Y0208723D01*
X0018150Y0208683D01*
X0018338Y0208638D01*
X0018525Y0208589D01*
X0018711Y0208535D01*
X0018895Y0208477D01*
X0019078Y0208414D01*
X0019259Y0208346D01*
X0019438Y0208275D01*
X0019616Y0208198D01*
X0019792Y0208118D01*
X0019965Y0208033D01*
X0020137Y0207944D01*
X0020306Y0207851D01*
X0020473Y0207754D01*
X0020638Y0207652D01*
X0020800Y0207547D01*
X0020959Y0207438D01*
X0021116Y0207324D01*
X0021269Y0207207D01*
X0021420Y0207087D01*
X0021568Y0206962D01*
X0021713Y0206834D01*
X0021854Y0206703D01*
X0021993Y0206568D01*
X0022128Y0206429D01*
X0022259Y0206288D01*
X0022387Y0206143D01*
X0022512Y0205995D01*
X0022632Y0205844D01*
X0022749Y0205691D01*
X0022863Y0205534D01*
X0022972Y0205375D01*
X0023077Y0205213D01*
X0023179Y0205048D01*
X0023276Y0204881D01*
X0023369Y0204712D01*
X0023458Y0204540D01*
X0023543Y0204367D01*
X0023623Y0204191D01*
X0023700Y0204013D01*
X0023771Y0203834D01*
X0023839Y0203653D01*
X0023902Y0203470D01*
X0023960Y0203286D01*
X0024014Y0203100D01*
X0024063Y0202913D01*
X0024108Y0202725D01*
X0024148Y0202536D01*
X0024183Y0202346D01*
X0024214Y0202155D01*
X0024240Y0201964D01*
X0024261Y0201772D01*
X0024278Y0201579D01*
X0024290Y0201386D01*
X0024297Y0201193D01*
X0024299Y0201000D01*
X0024297Y0200807D01*
X0024290Y0200614D01*
X0024278Y0200421D01*
X0024261Y0200228D01*
X0024240Y0200036D01*
X0024214Y0199845D01*
X0024183Y0199654D01*
X0024148Y0199464D01*
X0024108Y0199275D01*
X0024063Y0199087D01*
X0024014Y0198900D01*
X0023960Y0198714D01*
X0023902Y0198530D01*
X0023839Y0198347D01*
X0023771Y0198166D01*
X0023700Y0197987D01*
X0023623Y0197809D01*
X0023543Y0197633D01*
X0023458Y0197460D01*
X0023369Y0197288D01*
X0023276Y0197119D01*
X0023179Y0196952D01*
X0023077Y0196787D01*
X0022972Y0196625D01*
X0022863Y0196466D01*
X0022749Y0196309D01*
X0022632Y0196156D01*
X0022512Y0196005D01*
X0022387Y0195857D01*
X0022259Y0195712D01*
X0022128Y0195571D01*
X0021993Y0195432D01*
X0021854Y0195297D01*
X0021713Y0195166D01*
X0021568Y0195038D01*
X0021420Y0194913D01*
X0021269Y0194793D01*
X0021116Y0194676D01*
X0020959Y0194562D01*
X0020800Y0194453D01*
X0020638Y0194348D01*
X0020473Y0194246D01*
X0020306Y0194149D01*
X0020137Y0194056D01*
X0019965Y0193967D01*
X0019792Y0193882D01*
X0019616Y0193802D01*
X0019438Y0193725D01*
X0019259Y0193654D01*
X0019078Y0193586D01*
X0018895Y0193523D01*
X0018711Y0193465D01*
X0018525Y0193411D01*
X0018338Y0193362D01*
X0018150Y0193317D01*
X0017961Y0193277D01*
X0017771Y0193242D01*
X0017580Y0193211D01*
X0017389Y0193185D01*
X0017197Y0193164D01*
X0017004Y0193147D01*
X0016811Y0193135D01*
X0016618Y0193128D01*
X0016425Y0193126D01*
X0016232Y0193128D01*
X0016039Y0193135D01*
X0015846Y0193147D01*
X0015653Y0193164D01*
X0015461Y0193185D01*
X0015270Y0193211D01*
X0015079Y0193242D01*
X0014889Y0193277D01*
X0014700Y0193317D01*
X0014512Y0193362D01*
X0014325Y0193411D01*
X0014139Y0193465D01*
X0013955Y0193523D01*
X0013772Y0193586D01*
X0013591Y0193654D01*
X0013412Y0193725D01*
X0013234Y0193802D01*
X0013058Y0193882D01*
X0012885Y0193967D01*
X0012713Y0194056D01*
X0012544Y0194149D01*
X0012377Y0194246D01*
X0012212Y0194348D01*
X0012050Y0194453D01*
X0011891Y0194562D01*
X0011734Y0194676D01*
X0011581Y0194793D01*
X0011430Y0194913D01*
X0011282Y0195038D01*
X0011137Y0195166D01*
X0010996Y0195297D01*
X0010857Y0195432D01*
X0010722Y0195571D01*
X0010591Y0195712D01*
X0010463Y0195857D01*
X0010338Y0196005D01*
X0010218Y0196156D01*
X0010101Y0196309D01*
X0009987Y0196466D01*
X0009878Y0196625D01*
X0009773Y0196787D01*
X0009671Y0196952D01*
X0009574Y0197119D01*
X0009481Y0197288D01*
X0009392Y0197460D01*
X0009307Y0197633D01*
X0009227Y0197809D01*
X0009150Y0197987D01*
X0009079Y0198166D01*
X0009011Y0198347D01*
X0008948Y0198530D01*
X0008890Y0198714D01*
X0008836Y0198900D01*
X0008787Y0199087D01*
X0008742Y0199275D01*
X0008702Y0199464D01*
X0008667Y0199654D01*
X0008636Y0199845D01*
X0008610Y0200036D01*
X0008589Y0200228D01*
X0008572Y0200421D01*
X0008560Y0200614D01*
X0008553Y0200807D01*
X0008551Y0201000D01*
D11*
X0031725Y0201300D02*
X0031725Y0207705D01*
X0034928Y0207705D01*
X0035996Y0206638D01*
X0035996Y0204503D01*
X0034928Y0203435D01*
X0031725Y0203435D01*
X0038171Y0202368D02*
X0039238Y0201300D01*
X0042441Y0201300D01*
X0042441Y0200232D02*
X0041373Y0199165D01*
X0040306Y0199165D01*
X0042441Y0200232D02*
X0042441Y0205570D01*
X0044616Y0205570D02*
X0044616Y0201300D01*
X0044616Y0203435D02*
X0046751Y0205570D01*
X0047819Y0205570D01*
X0049987Y0205570D02*
X0049987Y0202368D01*
X0051055Y0201300D01*
X0054258Y0201300D01*
X0054258Y0205570D01*
X0056433Y0205570D02*
X0059636Y0205570D01*
X0060703Y0204503D01*
X0060703Y0201300D01*
X0062878Y0202368D02*
X0062878Y0206638D01*
X0063946Y0207705D01*
X0066081Y0207705D01*
X0067149Y0206638D01*
X0067149Y0204503D01*
X0066081Y0203435D01*
X0066081Y0205570D01*
X0063946Y0205570D01*
X0063946Y0203435D01*
X0066081Y0203435D01*
X0067149Y0202368D02*
X0066081Y0201300D01*
X0063946Y0201300D01*
X0062878Y0202368D01*
X0056433Y0201300D02*
X0056433Y0205570D01*
X0069324Y0206638D02*
X0070391Y0207705D01*
X0072527Y0207705D01*
X0073594Y0206638D01*
X0073594Y0205570D01*
X0069324Y0201300D01*
X0073594Y0201300D01*
X0075769Y0202368D02*
X0080040Y0206638D01*
X0080040Y0202368D01*
X0078972Y0201300D01*
X0076837Y0201300D01*
X0075769Y0202368D01*
X0075769Y0206638D01*
X0076837Y0207705D01*
X0078972Y0207705D01*
X0080040Y0206638D01*
X0082215Y0205570D02*
X0084350Y0207705D01*
X0084350Y0201300D01*
X0082215Y0201300D02*
X0086485Y0201300D01*
X0088660Y0202368D02*
X0088660Y0204503D01*
X0091863Y0204503D01*
X0092931Y0203435D01*
X0092931Y0202368D01*
X0091863Y0201300D01*
X0089728Y0201300D01*
X0088660Y0202368D01*
X0088660Y0204503D02*
X0090796Y0206638D01*
X0092931Y0207705D01*
X0098925Y0181000D02*
X0096425Y0178500D01*
X0096425Y0173500D01*
X0098925Y0171000D01*
X0096425Y0168500D01*
X0096425Y0163500D01*
X0098925Y0161000D01*
X0103925Y0161000D01*
X0106425Y0163500D01*
X0106425Y0168500D01*
X0103925Y0171000D01*
X0098925Y0171000D01*
X0103925Y0171000D02*
X0106425Y0173500D01*
X0106425Y0178500D01*
X0103925Y0181000D01*
X0098925Y0181000D01*
X0098925Y0161000D02*
X0096425Y0158500D01*
X0096425Y0153500D01*
X0098925Y0151000D01*
X0096425Y0148500D01*
X0096425Y0143500D01*
X0098925Y0141000D01*
X0096425Y0138500D01*
X0096425Y0133500D01*
X0098925Y0131000D01*
X0103925Y0131000D01*
X0106425Y0133500D01*
X0106425Y0138500D01*
X0103925Y0141000D01*
X0098925Y0141000D01*
X0103925Y0141000D02*
X0106425Y0143500D01*
X0106425Y0148500D01*
X0103925Y0151000D01*
X0098925Y0151000D01*
X0103925Y0151000D02*
X0106425Y0153500D01*
X0106425Y0158500D01*
X0103925Y0161000D01*
X0103925Y0131000D02*
X0106425Y0128500D01*
X0106425Y0123500D01*
X0103925Y0121000D01*
X0106425Y0118500D01*
X0106425Y0113500D01*
X0103925Y0111000D01*
X0106425Y0108500D01*
X0106425Y0103500D01*
X0103925Y0101000D01*
X0098925Y0101000D01*
X0096425Y0103500D01*
X0096425Y0108500D01*
X0098925Y0111000D01*
X0096425Y0113500D01*
X0096425Y0118500D01*
X0098925Y0121000D01*
X0096425Y0123500D01*
X0096425Y0128500D01*
X0098925Y0131000D01*
X0098925Y0121000D02*
X0103925Y0121000D01*
X0103925Y0111000D02*
X0098925Y0111000D01*
X0098925Y0101000D02*
X0096425Y0098500D01*
X0096425Y0093500D01*
X0098925Y0091000D01*
X0096425Y0088500D01*
X0096425Y0083500D01*
X0098925Y0081000D01*
X0103925Y0081000D01*
X0106425Y0083500D01*
X0106425Y0088500D01*
X0103925Y0091000D01*
X0098925Y0091000D01*
X0103925Y0091000D02*
X0106425Y0093500D01*
X0106425Y0098500D01*
X0103925Y0101000D01*
X0064109Y0087570D02*
X0064109Y0083300D01*
X0064109Y0086503D02*
X0059839Y0086503D01*
X0059839Y0087570D02*
X0059839Y0083300D01*
X0057664Y0083300D02*
X0057664Y0089705D01*
X0059839Y0087570D02*
X0061974Y0089705D01*
X0064109Y0087570D01*
X0057664Y0083300D02*
X0053393Y0089705D01*
X0053393Y0083300D01*
X0051218Y0083300D02*
X0051218Y0089705D01*
X0046948Y0089705D02*
X0051218Y0083300D01*
X0046948Y0083300D02*
X0046948Y0089705D01*
X0044773Y0089705D02*
X0040502Y0089705D01*
X0040502Y0083300D01*
X0044773Y0083300D01*
X0042638Y0086503D02*
X0040502Y0086503D01*
X0038327Y0089705D02*
X0034057Y0089705D01*
X0036192Y0089705D02*
X0036192Y0083300D01*
X0031882Y0083300D02*
X0031882Y0089705D01*
X0027611Y0089705D02*
X0031882Y0083300D01*
X0027611Y0083300D02*
X0027611Y0089705D01*
X0025436Y0087570D02*
X0025436Y0083300D01*
X0025436Y0086503D02*
X0021166Y0086503D01*
X0021166Y0087570D02*
X0021166Y0083300D01*
X0021166Y0087570D02*
X0023301Y0089705D01*
X0025436Y0087570D01*
X0018000Y0070921D02*
X0013000Y0070921D01*
X0010500Y0068421D01*
X0010500Y0063421D01*
X0013000Y0060921D01*
X0010500Y0058421D01*
X0010500Y0053421D01*
X0013000Y0050921D01*
X0018000Y0050921D01*
X0020500Y0053421D01*
X0020500Y0058421D01*
X0018000Y0060921D01*
X0013000Y0060921D01*
X0018000Y0060921D02*
X0020500Y0063421D01*
X0020500Y0068421D01*
X0018000Y0070921D01*
X0038171Y0202368D02*
X0038171Y0205570D01*
X0153220Y0202725D02*
X0153220Y0199523D01*
X0159625Y0199523D01*
X0159625Y0202725D01*
X0158558Y0203793D01*
X0157490Y0203793D01*
X0156422Y0202725D01*
X0156422Y0199523D01*
X0157490Y0197348D02*
X0158558Y0197348D01*
X0159625Y0196280D01*
X0159625Y0194145D01*
X0158558Y0193077D01*
X0158558Y0190902D02*
X0153220Y0190902D01*
X0154287Y0193077D02*
X0155355Y0193077D01*
X0156422Y0194145D01*
X0156422Y0196280D01*
X0157490Y0197348D01*
X0154287Y0197348D02*
X0153220Y0196280D01*
X0153220Y0194145D01*
X0154287Y0193077D01*
X0158558Y0190902D02*
X0159625Y0189834D01*
X0159625Y0187699D01*
X0158558Y0186632D01*
X0153220Y0186632D01*
X0153220Y0202725D02*
X0154287Y0203793D01*
X0155355Y0203793D01*
X0156422Y0202725D01*
D12*
X0143925Y0211000D02*
X0143925Y0216000D01*
X0168925Y0216000D01*
X0168925Y0211000D01*
X0168925Y0181000D01*
X0143925Y0181000D01*
X0143925Y0211000D01*
X0121425Y0211000D01*
X0121425Y0198500D01*
X0123925Y0201000D01*
X0128925Y0201000D01*
X0131425Y0198500D01*
X0131425Y0193500D01*
X0128925Y0191000D01*
X0131425Y0188500D01*
X0131425Y0183500D01*
X0128925Y0181000D01*
X0131425Y0178500D01*
X0131425Y0173500D01*
X0128925Y0171000D01*
X0131425Y0168500D01*
X0131425Y0163500D01*
X0128925Y0161000D01*
X0131425Y0158500D01*
X0131425Y0153500D01*
X0128925Y0151000D01*
X0131425Y0148500D01*
X0131425Y0143500D01*
X0128925Y0141000D01*
X0131425Y0138500D01*
X0131425Y0133500D01*
X0128925Y0131000D01*
X0131425Y0128500D01*
X0131425Y0123500D01*
X0128925Y0121000D01*
X0131425Y0118500D01*
X0131425Y0113500D01*
X0128925Y0111000D01*
X0131425Y0108500D01*
X0131425Y0103500D01*
X0128925Y0101000D01*
X0131425Y0098500D01*
X0131425Y0093500D01*
X0128925Y0091000D01*
X0131425Y0088500D01*
X0131425Y0083500D01*
X0128925Y0081000D01*
X0131425Y0078500D01*
X0131425Y0073500D01*
X0128925Y0071000D01*
X0131425Y0068500D01*
X0131425Y0063500D01*
X0128925Y0061000D01*
X0131425Y0058500D01*
X0131425Y0053500D01*
X0128925Y0051000D01*
X0123925Y0051000D01*
X0121425Y0053500D01*
X0121425Y0058500D02*
X0121425Y0041000D01*
X0143925Y0041000D01*
X0168925Y0041000D01*
X0191425Y0041000D01*
X0191425Y0063500D01*
X0188925Y0061000D01*
X0191425Y0058500D01*
X0191425Y0053500D02*
X0188925Y0051000D01*
X0183925Y0051000D01*
X0181425Y0053500D01*
X0181425Y0058500D01*
X0183925Y0061000D01*
X0181425Y0063500D01*
X0181425Y0068500D01*
X0183925Y0071000D01*
X0181425Y0073500D01*
X0181425Y0078500D01*
X0183925Y0081000D01*
X0181425Y0083500D01*
X0181425Y0088500D01*
X0183925Y0091000D01*
X0181425Y0093500D01*
X0181425Y0098500D01*
X0183925Y0101000D01*
X0181425Y0103500D01*
X0181425Y0108500D01*
X0183925Y0111000D01*
X0181425Y0113500D01*
X0181425Y0118500D01*
X0183925Y0121000D01*
X0181425Y0123500D01*
X0181425Y0128500D01*
X0183925Y0131000D01*
X0181425Y0133500D01*
X0181425Y0138500D01*
X0183925Y0141000D01*
X0181425Y0143500D01*
X0181425Y0148500D01*
X0183925Y0151000D01*
X0181425Y0153500D01*
X0181425Y0158500D01*
X0183925Y0161000D01*
X0181425Y0163500D01*
X0181425Y0168500D01*
X0183925Y0171000D01*
X0181425Y0173500D01*
X0181425Y0178500D01*
X0183925Y0181000D01*
X0181425Y0183500D01*
X0181425Y0188500D01*
X0183925Y0191000D01*
X0181425Y0193500D01*
X0181425Y0198500D01*
X0183925Y0201000D01*
X0188925Y0201000D01*
X0191425Y0198500D01*
X0191425Y0211000D01*
X0168925Y0211000D01*
X0188925Y0191000D02*
X0191425Y0193500D01*
X0191425Y0198500D01*
X0191425Y0193500D02*
X0191425Y0188500D01*
X0188925Y0191000D01*
X0191425Y0188500D02*
X0191425Y0183500D01*
X0188925Y0181000D01*
X0191425Y0178500D01*
X0191425Y0183500D01*
X0191425Y0178500D02*
X0191425Y0173500D01*
X0188925Y0171000D01*
X0191425Y0168500D01*
X0191425Y0173500D02*
X0191425Y0143500D01*
X0188925Y0141000D01*
X0191425Y0138500D01*
X0191425Y0133500D02*
X0188925Y0131000D01*
X0191425Y0128500D01*
X0191425Y0123500D02*
X0188925Y0121000D01*
X0191425Y0118500D01*
X0191425Y0113500D02*
X0188925Y0111000D01*
X0191425Y0108500D01*
X0191425Y0103500D02*
X0188925Y0101000D01*
X0191425Y0098500D01*
X0191425Y0093500D02*
X0188925Y0091000D01*
X0191425Y0088500D01*
X0191425Y0083500D02*
X0188925Y0081000D01*
X0191425Y0078500D01*
X0191425Y0143500D01*
X0191425Y0148500D02*
X0188925Y0151000D01*
X0191425Y0153500D01*
X0191425Y0158500D02*
X0188925Y0161000D01*
X0191425Y0163500D01*
X0161425Y0121000D02*
X0146425Y0121000D01*
X0146425Y0111000D01*
X0161425Y0111000D01*
X0161425Y0121000D01*
X0150925Y0116000D02*
X0150927Y0116109D01*
X0150933Y0116218D01*
X0150943Y0116326D01*
X0150957Y0116434D01*
X0150974Y0116542D01*
X0150996Y0116649D01*
X0151021Y0116755D01*
X0151051Y0116859D01*
X0151084Y0116963D01*
X0151121Y0117066D01*
X0151161Y0117167D01*
X0151205Y0117266D01*
X0151253Y0117364D01*
X0151305Y0117461D01*
X0151359Y0117555D01*
X0151417Y0117647D01*
X0151479Y0117737D01*
X0151544Y0117824D01*
X0151611Y0117910D01*
X0151682Y0117993D01*
X0151756Y0118073D01*
X0151833Y0118150D01*
X0151912Y0118225D01*
X0151994Y0118296D01*
X0152079Y0118365D01*
X0152166Y0118430D01*
X0152255Y0118493D01*
X0152347Y0118551D01*
X0152441Y0118607D01*
X0152536Y0118659D01*
X0152634Y0118708D01*
X0152733Y0118753D01*
X0152834Y0118795D01*
X0152936Y0118832D01*
X0153039Y0118866D01*
X0153144Y0118897D01*
X0153250Y0118923D01*
X0153356Y0118946D01*
X0153464Y0118964D01*
X0153572Y0118979D01*
X0153680Y0118990D01*
X0153789Y0118997D01*
X0153898Y0119000D01*
X0154007Y0118999D01*
X0154116Y0118994D01*
X0154224Y0118985D01*
X0154332Y0118972D01*
X0154440Y0118955D01*
X0154547Y0118935D01*
X0154653Y0118910D01*
X0154758Y0118882D01*
X0154862Y0118850D01*
X0154965Y0118814D01*
X0155067Y0118774D01*
X0155167Y0118731D01*
X0155265Y0118684D01*
X0155362Y0118634D01*
X0155456Y0118580D01*
X0155549Y0118522D01*
X0155640Y0118462D01*
X0155728Y0118398D01*
X0155814Y0118331D01*
X0155897Y0118261D01*
X0155978Y0118188D01*
X0156056Y0118112D01*
X0156131Y0118033D01*
X0156204Y0117951D01*
X0156273Y0117867D01*
X0156339Y0117781D01*
X0156402Y0117692D01*
X0156462Y0117601D01*
X0156519Y0117508D01*
X0156572Y0117413D01*
X0156621Y0117316D01*
X0156667Y0117217D01*
X0156709Y0117117D01*
X0156748Y0117015D01*
X0156783Y0116911D01*
X0156814Y0116807D01*
X0156842Y0116702D01*
X0156865Y0116595D01*
X0156885Y0116488D01*
X0156901Y0116380D01*
X0156913Y0116272D01*
X0156921Y0116163D01*
X0156925Y0116054D01*
X0156925Y0115946D01*
X0156921Y0115837D01*
X0156913Y0115728D01*
X0156901Y0115620D01*
X0156885Y0115512D01*
X0156865Y0115405D01*
X0156842Y0115298D01*
X0156814Y0115193D01*
X0156783Y0115089D01*
X0156748Y0114985D01*
X0156709Y0114883D01*
X0156667Y0114783D01*
X0156621Y0114684D01*
X0156572Y0114587D01*
X0156519Y0114492D01*
X0156462Y0114399D01*
X0156402Y0114308D01*
X0156339Y0114219D01*
X0156273Y0114133D01*
X0156204Y0114049D01*
X0156131Y0113967D01*
X0156056Y0113888D01*
X0155978Y0113812D01*
X0155897Y0113739D01*
X0155814Y0113669D01*
X0155728Y0113602D01*
X0155640Y0113538D01*
X0155549Y0113478D01*
X0155456Y0113420D01*
X0155362Y0113366D01*
X0155265Y0113316D01*
X0155167Y0113269D01*
X0155067Y0113226D01*
X0154965Y0113186D01*
X0154862Y0113150D01*
X0154758Y0113118D01*
X0154653Y0113090D01*
X0154547Y0113065D01*
X0154440Y0113045D01*
X0154332Y0113028D01*
X0154224Y0113015D01*
X0154116Y0113006D01*
X0154007Y0113001D01*
X0153898Y0113000D01*
X0153789Y0113003D01*
X0153680Y0113010D01*
X0153572Y0113021D01*
X0153464Y0113036D01*
X0153356Y0113054D01*
X0153250Y0113077D01*
X0153144Y0113103D01*
X0153039Y0113134D01*
X0152936Y0113168D01*
X0152834Y0113205D01*
X0152733Y0113247D01*
X0152634Y0113292D01*
X0152536Y0113341D01*
X0152441Y0113393D01*
X0152347Y0113449D01*
X0152255Y0113507D01*
X0152166Y0113570D01*
X0152079Y0113635D01*
X0151994Y0113704D01*
X0151912Y0113775D01*
X0151833Y0113850D01*
X0151756Y0113927D01*
X0151682Y0114007D01*
X0151611Y0114090D01*
X0151544Y0114176D01*
X0151479Y0114263D01*
X0151417Y0114353D01*
X0151359Y0114445D01*
X0151305Y0114539D01*
X0151253Y0114636D01*
X0151205Y0114734D01*
X0151161Y0114833D01*
X0151121Y0114934D01*
X0151084Y0115037D01*
X0151051Y0115141D01*
X0151021Y0115245D01*
X0150996Y0115351D01*
X0150974Y0115458D01*
X0150957Y0115566D01*
X0150943Y0115674D01*
X0150933Y0115782D01*
X0150927Y0115891D01*
X0150925Y0116000D01*
X0123925Y0111000D02*
X0121425Y0108500D01*
X0121425Y0103500D01*
X0123925Y0101000D01*
X0121425Y0098500D01*
X0121425Y0093500D01*
X0123925Y0091000D01*
X0121425Y0088500D01*
X0121425Y0083500D01*
X0123925Y0081000D01*
X0121425Y0078500D01*
X0121425Y0073500D01*
X0123925Y0071000D01*
X0121425Y0068500D01*
X0121425Y0063500D01*
X0123925Y0061000D01*
X0121425Y0058500D01*
X0121425Y0063500D01*
X0121425Y0068500D02*
X0121425Y0073500D01*
X0121425Y0078500D02*
X0121425Y0083500D01*
X0121425Y0088500D02*
X0121425Y0093500D01*
X0121425Y0098500D02*
X0121425Y0103500D01*
X0121425Y0108500D02*
X0121425Y0113500D01*
X0123925Y0111000D01*
X0121425Y0113500D02*
X0121425Y0118500D01*
X0123925Y0121000D01*
X0121425Y0123500D01*
X0121425Y0118500D01*
X0121425Y0123500D02*
X0121425Y0128500D01*
X0123925Y0131000D01*
X0121425Y0133500D01*
X0121425Y0128500D01*
X0121425Y0133500D02*
X0121425Y0138500D01*
X0123925Y0141000D01*
X0121425Y0143500D01*
X0121425Y0138500D01*
X0121425Y0143500D02*
X0121425Y0148500D01*
X0123925Y0151000D01*
X0121425Y0153500D01*
X0121425Y0148500D01*
X0121425Y0153500D02*
X0121425Y0158500D01*
X0123925Y0161000D01*
X0121425Y0163500D01*
X0121425Y0173500D01*
X0123925Y0171000D01*
X0121425Y0168500D01*
X0121425Y0173500D02*
X0121425Y0178500D01*
X0123925Y0181000D01*
X0121425Y0183500D01*
X0121425Y0178500D01*
X0121425Y0183500D02*
X0121425Y0188500D01*
X0123925Y0191000D01*
X0121425Y0193500D01*
X0121425Y0188500D01*
X0121425Y0193500D02*
X0121425Y0198500D01*
X0113375Y0179949D02*
X0113375Y0176946D01*
X0113375Y0178447D02*
X0108871Y0178447D01*
X0110373Y0176946D01*
X0111123Y0175345D02*
X0111874Y0174594D01*
X0111874Y0172342D01*
X0113375Y0172342D02*
X0108871Y0172342D01*
X0108871Y0174594D01*
X0109622Y0175345D01*
X0111123Y0175345D01*
X0108871Y0170741D02*
X0108871Y0169239D01*
X0108871Y0169990D02*
X0112625Y0169990D01*
X0113375Y0169239D01*
X0113375Y0168489D01*
X0112625Y0167738D01*
X0121425Y0163500D02*
X0121425Y0158500D01*
X0072925Y0187600D02*
X0013925Y0187600D01*
X0013925Y0099000D01*
X0072925Y0099000D01*
X0072925Y0073400D01*
X0013925Y0073400D01*
X0013925Y0099000D01*
X0023697Y0069870D02*
X0022946Y0069119D01*
X0022946Y0067618D01*
X0023697Y0066867D01*
X0023697Y0065266D02*
X0025198Y0065266D01*
X0025949Y0064515D01*
X0025949Y0062263D01*
X0027450Y0062263D02*
X0022946Y0062263D01*
X0022946Y0064515D01*
X0023697Y0065266D01*
X0027450Y0066867D02*
X0024447Y0069870D01*
X0023697Y0069870D01*
X0027450Y0069870D02*
X0027450Y0066867D01*
X0026699Y0059911D02*
X0022946Y0059911D01*
X0022946Y0059161D02*
X0022946Y0060662D01*
X0026699Y0059911D02*
X0027450Y0059161D01*
X0027450Y0058410D01*
X0026699Y0057659D01*
X0072925Y0099000D02*
X0072925Y0187600D01*
X0068925Y0186000D02*
X0071425Y0183500D01*
X0071425Y0168500D01*
X0068925Y0166000D01*
X0063925Y0166000D01*
X0061425Y0168500D01*
X0058925Y0166000D01*
X0053925Y0166000D01*
X0051425Y0168500D01*
X0048925Y0166000D01*
X0043925Y0166000D01*
X0041425Y0168500D01*
X0038925Y0166000D01*
X0033925Y0166000D01*
X0031425Y0168500D01*
X0031425Y0173500D01*
X0033925Y0176000D01*
X0031425Y0178500D01*
X0031425Y0183500D01*
X0033925Y0186000D01*
X0038925Y0186000D01*
X0041425Y0183500D01*
X0043925Y0186000D01*
X0048925Y0186000D01*
X0051425Y0183500D01*
X0053925Y0186000D01*
X0058925Y0186000D01*
X0061425Y0183500D01*
X0063925Y0186000D01*
X0068925Y0186000D01*
X0188925Y0071000D02*
X0191425Y0073500D01*
X0188925Y0071000D02*
X0191425Y0068500D01*
X0191425Y0063500D02*
X0191425Y0078500D01*
X0115441Y0053146D02*
X0115441Y0029524D01*
X0091819Y0029524D01*
X0091819Y0053146D01*
X0115441Y0053146D01*
D13*
X0108351Y0059585D02*
X0103747Y0059585D01*
X0106049Y0057283D01*
X0106049Y0060352D01*
X0090831Y0060352D02*
X0090831Y0057283D01*
X0087762Y0060352D01*
X0086995Y0060352D01*
X0086228Y0059585D01*
X0086228Y0058050D01*
X0086995Y0057283D01*
X0086698Y0037397D02*
X0086698Y0034328D01*
X0086698Y0035862D02*
X0082094Y0035862D01*
X0083628Y0034328D01*
X0082861Y0032793D02*
X0082094Y0032026D01*
X0082094Y0030491D01*
X0082861Y0029724D01*
X0083628Y0029724D01*
X0084396Y0030491D01*
X0084396Y0032026D01*
X0085163Y0032793D01*
X0085930Y0032793D01*
X0086698Y0032026D01*
X0086698Y0030491D01*
X0085930Y0029724D01*
X0090635Y0024919D02*
X0090635Y0021850D01*
X0090635Y0023384D02*
X0086031Y0023384D01*
X0087565Y0021850D01*
X0103747Y0022617D02*
X0103747Y0024152D01*
X0104515Y0024919D01*
X0105282Y0024919D01*
X0106049Y0024152D01*
X0106817Y0024919D01*
X0107584Y0024919D01*
X0108351Y0024152D01*
X0108351Y0022617D01*
X0107584Y0021850D01*
X0106049Y0023384D02*
X0106049Y0024152D01*
X0104515Y0021850D02*
X0103747Y0022617D01*
X0119062Y0024783D02*
X0123666Y0024783D01*
X0123666Y0027852D01*
X0123666Y0029387D02*
X0123666Y0032456D01*
X0123666Y0033991D02*
X0123666Y0036292D01*
X0122899Y0037060D01*
X0119830Y0037060D01*
X0119062Y0036292D01*
X0119062Y0033991D01*
X0123666Y0033991D01*
X0121364Y0030921D02*
X0121364Y0029387D01*
X0119062Y0029387D02*
X0119062Y0032456D01*
X0119062Y0029387D02*
X0123666Y0029387D01*
X0123666Y0038594D02*
X0120597Y0041664D01*
X0119830Y0041664D01*
X0119062Y0040896D01*
X0119062Y0039362D01*
X0119830Y0038594D01*
X0123666Y0038594D02*
X0123666Y0041664D01*
X0133590Y0040129D02*
X0138194Y0040129D01*
X0138194Y0038594D02*
X0138194Y0041664D01*
X0135124Y0038594D02*
X0133590Y0040129D01*
X0134357Y0037060D02*
X0133590Y0036292D01*
X0133590Y0033991D01*
X0138194Y0033991D01*
X0138194Y0036292D01*
X0137426Y0037060D01*
X0134357Y0037060D01*
X0133590Y0032456D02*
X0133590Y0029387D01*
X0138194Y0029387D01*
X0138194Y0032456D01*
X0135892Y0030921D02*
X0135892Y0029387D01*
X0138194Y0027852D02*
X0138194Y0024783D01*
X0133590Y0024783D01*
X0147645Y0025137D02*
X0152249Y0025137D01*
X0152249Y0028206D01*
X0152249Y0029741D02*
X0152249Y0032810D01*
X0152249Y0034345D02*
X0152249Y0036647D01*
X0151482Y0037414D01*
X0148412Y0037414D01*
X0147645Y0036647D01*
X0147645Y0034345D01*
X0152249Y0034345D01*
X0149947Y0031276D02*
X0149947Y0029741D01*
X0147645Y0029741D02*
X0152249Y0029741D01*
X0147645Y0029741D02*
X0147645Y0032810D01*
X0148412Y0038949D02*
X0147645Y0039716D01*
X0147645Y0041251D01*
X0148412Y0042018D01*
X0149180Y0042018D01*
X0149947Y0041251D01*
X0150714Y0042018D01*
X0151482Y0042018D01*
X0152249Y0041251D01*
X0152249Y0039716D01*
X0151482Y0038949D01*
X0149947Y0040483D02*
X0149947Y0041251D01*
X0162645Y0041251D02*
X0164947Y0038949D01*
X0164947Y0042018D01*
X0167249Y0041251D02*
X0162645Y0041251D01*
X0163412Y0037414D02*
X0162645Y0036647D01*
X0162645Y0034345D01*
X0167249Y0034345D01*
X0167249Y0036647D01*
X0166482Y0037414D01*
X0163412Y0037414D01*
X0162645Y0032810D02*
X0162645Y0029741D01*
X0167249Y0029741D01*
X0167249Y0032810D01*
X0164947Y0031276D02*
X0164947Y0029741D01*
X0167249Y0028206D02*
X0167249Y0025137D01*
X0162645Y0025137D01*
X0177645Y0025137D02*
X0182249Y0025137D01*
X0182249Y0028206D01*
X0182249Y0029741D02*
X0182249Y0032810D01*
X0182249Y0034345D02*
X0182249Y0036647D01*
X0181482Y0037414D01*
X0178412Y0037414D01*
X0177645Y0036647D01*
X0177645Y0034345D01*
X0182249Y0034345D01*
X0179947Y0031276D02*
X0179947Y0029741D01*
X0177645Y0029741D02*
X0182249Y0029741D01*
X0177645Y0029741D02*
X0177645Y0032810D01*
X0177645Y0038949D02*
X0179947Y0038949D01*
X0179180Y0040483D01*
X0179180Y0041251D01*
X0179947Y0042018D01*
X0181482Y0042018D01*
X0182249Y0041251D01*
X0182249Y0039716D01*
X0181482Y0038949D01*
X0177645Y0038949D02*
X0177645Y0042018D01*
X0196621Y0121596D02*
X0198156Y0123131D01*
X0196621Y0124665D01*
X0201225Y0124665D01*
X0201225Y0126200D02*
X0201225Y0129269D01*
X0201225Y0127735D02*
X0196621Y0127735D01*
X0198156Y0126200D01*
X0196621Y0121596D02*
X0201225Y0121596D01*
X0081225Y0126596D02*
X0076621Y0126596D01*
X0078156Y0128131D01*
X0076621Y0129665D01*
X0081225Y0129665D01*
X0081225Y0131200D02*
X0078156Y0134269D01*
X0077389Y0134269D01*
X0076621Y0133502D01*
X0076621Y0131967D01*
X0077389Y0131200D01*
X0081225Y0131200D02*
X0081225Y0134269D01*
D14*
X0144867Y0107853D02*
X0144867Y0104150D01*
X0144867Y0105384D02*
X0146719Y0105384D01*
X0147336Y0106002D01*
X0147336Y0107236D01*
X0146719Y0107853D01*
X0144867Y0107853D01*
X0146102Y0105384D02*
X0147336Y0104150D01*
X0148550Y0104150D02*
X0151019Y0104150D01*
X0152234Y0104767D02*
X0152851Y0104150D01*
X0154085Y0104150D01*
X0154702Y0104767D01*
X0154702Y0105384D01*
X0154085Y0106002D01*
X0152851Y0106002D01*
X0152234Y0106619D01*
X0152234Y0107236D01*
X0152851Y0107853D01*
X0154085Y0107853D01*
X0154702Y0107236D01*
X0155917Y0107853D02*
X0155917Y0104150D01*
X0158386Y0104150D01*
X0157151Y0106002D02*
X0155917Y0106002D01*
X0155917Y0107853D02*
X0158386Y0107853D01*
X0159600Y0107853D02*
X0162069Y0107853D01*
X0160834Y0107853D02*
X0160834Y0104150D01*
X0151019Y0107853D02*
X0148550Y0107853D01*
X0148550Y0104150D01*
X0148550Y0106002D02*
X0149785Y0106002D01*
D15*
X0154742Y0032152D03*
X0160156Y0032152D03*
X0169742Y0032152D03*
X0175156Y0032152D03*
X0184742Y0032152D03*
X0190156Y0032152D03*
X0146100Y0031797D03*
X0140687Y0031797D03*
X0131573Y0031797D03*
X0126159Y0031797D03*
D16*
X0128866Y0030272D03*
X0143394Y0030272D03*
X0157449Y0030626D03*
X0172449Y0030626D03*
X0187449Y0030626D03*
D17*
X0112488Y0032476D03*
X0112488Y0050193D03*
X0094772Y0050193D03*
X0094772Y0032476D03*
D18*
X0103630Y0041335D03*
D19*
X0112488Y0025587D03*
X0094772Y0025587D03*
X0094772Y0057083D03*
X0112488Y0057083D03*
D20*
X0079614Y0049898D02*
X0079614Y0065252D01*
X0032370Y0065252D01*
X0032370Y0049898D01*
X0032370Y0033362D02*
X0032370Y0018402D01*
X0079614Y0018402D02*
X0079614Y0033362D01*
D21*
X0040942Y0047310D02*
X0039441Y0048311D01*
X0039691Y0048783D02*
X0039441Y0049033D01*
X0039441Y0049534D01*
X0039691Y0049784D01*
X0039941Y0049784D01*
X0040942Y0048783D01*
X0040942Y0049784D01*
X0040942Y0048311D02*
X0039441Y0047310D01*
M02*
