%
M48
M72
T01C0.01200
T02C0.04000
T03C0.17717
%
T01
X120400Y46600
X97600Y63400
X79000Y65800
X76600Y73000
X52600Y81400
X26800Y97600
X110800Y112000
X151600Y123400
X102400Y146800
X151600Y158200
X217000Y158200
X256600Y139000
X217000Y123400
X256600Y104800
X217000Y88000
X217000Y64600
X251200Y32200
X311200Y26800
X151600Y64600
X110800Y77200
X151600Y88000
X54400Y171400
T02
X16906Y137063
X16906Y127063
X16906Y117063
X16906Y107063
X16906Y97063
T03
X20685Y20685
X20685Y182102
X375016Y178953
X375016Y20685
M30
