G75*
%MOIN*%
%OFA0B0*%
%FSLAX25Y25*%
%IPPOS*%
%LPD*%
%AMOC8*
5,1,8,0,0,1.08239X$1,22.5*
%
%ADD10C,0.00000*%
%ADD11C,0.00400*%
%ADD12C,0.00600*%
%ADD13C,0.00200*%
%ADD14C,0.00500*%
D10*
X0001000Y0001000D02*
X0001000Y0197850D01*
X0394701Y0197850D01*
X0394701Y0001000D01*
X0001000Y0001000D01*
X0011827Y0020685D02*
X0011830Y0020902D01*
X0011838Y0021120D01*
X0011851Y0021337D01*
X0011870Y0021553D01*
X0011894Y0021769D01*
X0011923Y0021985D01*
X0011957Y0022199D01*
X0011997Y0022413D01*
X0012042Y0022626D01*
X0012092Y0022837D01*
X0012148Y0023048D01*
X0012208Y0023256D01*
X0012274Y0023464D01*
X0012345Y0023669D01*
X0012421Y0023873D01*
X0012501Y0024075D01*
X0012587Y0024275D01*
X0012677Y0024472D01*
X0012773Y0024668D01*
X0012873Y0024861D01*
X0012978Y0025051D01*
X0013087Y0025239D01*
X0013201Y0025424D01*
X0013320Y0025606D01*
X0013443Y0025786D01*
X0013570Y0025962D01*
X0013702Y0026135D01*
X0013838Y0026304D01*
X0013978Y0026471D01*
X0014122Y0026634D01*
X0014270Y0026793D01*
X0014421Y0026949D01*
X0014577Y0027100D01*
X0014736Y0027248D01*
X0014899Y0027392D01*
X0015066Y0027532D01*
X0015235Y0027668D01*
X0015408Y0027800D01*
X0015584Y0027927D01*
X0015764Y0028050D01*
X0015946Y0028169D01*
X0016131Y0028283D01*
X0016319Y0028392D01*
X0016509Y0028497D01*
X0016702Y0028597D01*
X0016898Y0028693D01*
X0017095Y0028783D01*
X0017295Y0028869D01*
X0017497Y0028949D01*
X0017701Y0029025D01*
X0017906Y0029096D01*
X0018114Y0029162D01*
X0018322Y0029222D01*
X0018533Y0029278D01*
X0018744Y0029328D01*
X0018957Y0029373D01*
X0019171Y0029413D01*
X0019385Y0029447D01*
X0019601Y0029476D01*
X0019817Y0029500D01*
X0020033Y0029519D01*
X0020250Y0029532D01*
X0020468Y0029540D01*
X0020685Y0029543D01*
X0020902Y0029540D01*
X0021120Y0029532D01*
X0021337Y0029519D01*
X0021553Y0029500D01*
X0021769Y0029476D01*
X0021985Y0029447D01*
X0022199Y0029413D01*
X0022413Y0029373D01*
X0022626Y0029328D01*
X0022837Y0029278D01*
X0023048Y0029222D01*
X0023256Y0029162D01*
X0023464Y0029096D01*
X0023669Y0029025D01*
X0023873Y0028949D01*
X0024075Y0028869D01*
X0024275Y0028783D01*
X0024472Y0028693D01*
X0024668Y0028597D01*
X0024861Y0028497D01*
X0025051Y0028392D01*
X0025239Y0028283D01*
X0025424Y0028169D01*
X0025606Y0028050D01*
X0025786Y0027927D01*
X0025962Y0027800D01*
X0026135Y0027668D01*
X0026304Y0027532D01*
X0026471Y0027392D01*
X0026634Y0027248D01*
X0026793Y0027100D01*
X0026949Y0026949D01*
X0027100Y0026793D01*
X0027248Y0026634D01*
X0027392Y0026471D01*
X0027532Y0026304D01*
X0027668Y0026135D01*
X0027800Y0025962D01*
X0027927Y0025786D01*
X0028050Y0025606D01*
X0028169Y0025424D01*
X0028283Y0025239D01*
X0028392Y0025051D01*
X0028497Y0024861D01*
X0028597Y0024668D01*
X0028693Y0024472D01*
X0028783Y0024275D01*
X0028869Y0024075D01*
X0028949Y0023873D01*
X0029025Y0023669D01*
X0029096Y0023464D01*
X0029162Y0023256D01*
X0029222Y0023048D01*
X0029278Y0022837D01*
X0029328Y0022626D01*
X0029373Y0022413D01*
X0029413Y0022199D01*
X0029447Y0021985D01*
X0029476Y0021769D01*
X0029500Y0021553D01*
X0029519Y0021337D01*
X0029532Y0021120D01*
X0029540Y0020902D01*
X0029543Y0020685D01*
X0029540Y0020468D01*
X0029532Y0020250D01*
X0029519Y0020033D01*
X0029500Y0019817D01*
X0029476Y0019601D01*
X0029447Y0019385D01*
X0029413Y0019171D01*
X0029373Y0018957D01*
X0029328Y0018744D01*
X0029278Y0018533D01*
X0029222Y0018322D01*
X0029162Y0018114D01*
X0029096Y0017906D01*
X0029025Y0017701D01*
X0028949Y0017497D01*
X0028869Y0017295D01*
X0028783Y0017095D01*
X0028693Y0016898D01*
X0028597Y0016702D01*
X0028497Y0016509D01*
X0028392Y0016319D01*
X0028283Y0016131D01*
X0028169Y0015946D01*
X0028050Y0015764D01*
X0027927Y0015584D01*
X0027800Y0015408D01*
X0027668Y0015235D01*
X0027532Y0015066D01*
X0027392Y0014899D01*
X0027248Y0014736D01*
X0027100Y0014577D01*
X0026949Y0014421D01*
X0026793Y0014270D01*
X0026634Y0014122D01*
X0026471Y0013978D01*
X0026304Y0013838D01*
X0026135Y0013702D01*
X0025962Y0013570D01*
X0025786Y0013443D01*
X0025606Y0013320D01*
X0025424Y0013201D01*
X0025239Y0013087D01*
X0025051Y0012978D01*
X0024861Y0012873D01*
X0024668Y0012773D01*
X0024472Y0012677D01*
X0024275Y0012587D01*
X0024075Y0012501D01*
X0023873Y0012421D01*
X0023669Y0012345D01*
X0023464Y0012274D01*
X0023256Y0012208D01*
X0023048Y0012148D01*
X0022837Y0012092D01*
X0022626Y0012042D01*
X0022413Y0011997D01*
X0022199Y0011957D01*
X0021985Y0011923D01*
X0021769Y0011894D01*
X0021553Y0011870D01*
X0021337Y0011851D01*
X0021120Y0011838D01*
X0020902Y0011830D01*
X0020685Y0011827D01*
X0020468Y0011830D01*
X0020250Y0011838D01*
X0020033Y0011851D01*
X0019817Y0011870D01*
X0019601Y0011894D01*
X0019385Y0011923D01*
X0019171Y0011957D01*
X0018957Y0011997D01*
X0018744Y0012042D01*
X0018533Y0012092D01*
X0018322Y0012148D01*
X0018114Y0012208D01*
X0017906Y0012274D01*
X0017701Y0012345D01*
X0017497Y0012421D01*
X0017295Y0012501D01*
X0017095Y0012587D01*
X0016898Y0012677D01*
X0016702Y0012773D01*
X0016509Y0012873D01*
X0016319Y0012978D01*
X0016131Y0013087D01*
X0015946Y0013201D01*
X0015764Y0013320D01*
X0015584Y0013443D01*
X0015408Y0013570D01*
X0015235Y0013702D01*
X0015066Y0013838D01*
X0014899Y0013978D01*
X0014736Y0014122D01*
X0014577Y0014270D01*
X0014421Y0014421D01*
X0014270Y0014577D01*
X0014122Y0014736D01*
X0013978Y0014899D01*
X0013838Y0015066D01*
X0013702Y0015235D01*
X0013570Y0015408D01*
X0013443Y0015584D01*
X0013320Y0015764D01*
X0013201Y0015946D01*
X0013087Y0016131D01*
X0012978Y0016319D01*
X0012873Y0016509D01*
X0012773Y0016702D01*
X0012677Y0016898D01*
X0012587Y0017095D01*
X0012501Y0017295D01*
X0012421Y0017497D01*
X0012345Y0017701D01*
X0012274Y0017906D01*
X0012208Y0018114D01*
X0012148Y0018322D01*
X0012092Y0018533D01*
X0012042Y0018744D01*
X0011997Y0018957D01*
X0011957Y0019171D01*
X0011923Y0019385D01*
X0011894Y0019601D01*
X0011870Y0019817D01*
X0011851Y0020033D01*
X0011838Y0020250D01*
X0011830Y0020468D01*
X0011827Y0020685D01*
X0011827Y0182102D02*
X0011830Y0182319D01*
X0011838Y0182537D01*
X0011851Y0182754D01*
X0011870Y0182970D01*
X0011894Y0183186D01*
X0011923Y0183402D01*
X0011957Y0183616D01*
X0011997Y0183830D01*
X0012042Y0184043D01*
X0012092Y0184254D01*
X0012148Y0184465D01*
X0012208Y0184673D01*
X0012274Y0184881D01*
X0012345Y0185086D01*
X0012421Y0185290D01*
X0012501Y0185492D01*
X0012587Y0185692D01*
X0012677Y0185889D01*
X0012773Y0186085D01*
X0012873Y0186278D01*
X0012978Y0186468D01*
X0013087Y0186656D01*
X0013201Y0186841D01*
X0013320Y0187023D01*
X0013443Y0187203D01*
X0013570Y0187379D01*
X0013702Y0187552D01*
X0013838Y0187721D01*
X0013978Y0187888D01*
X0014122Y0188051D01*
X0014270Y0188210D01*
X0014421Y0188366D01*
X0014577Y0188517D01*
X0014736Y0188665D01*
X0014899Y0188809D01*
X0015066Y0188949D01*
X0015235Y0189085D01*
X0015408Y0189217D01*
X0015584Y0189344D01*
X0015764Y0189467D01*
X0015946Y0189586D01*
X0016131Y0189700D01*
X0016319Y0189809D01*
X0016509Y0189914D01*
X0016702Y0190014D01*
X0016898Y0190110D01*
X0017095Y0190200D01*
X0017295Y0190286D01*
X0017497Y0190366D01*
X0017701Y0190442D01*
X0017906Y0190513D01*
X0018114Y0190579D01*
X0018322Y0190639D01*
X0018533Y0190695D01*
X0018744Y0190745D01*
X0018957Y0190790D01*
X0019171Y0190830D01*
X0019385Y0190864D01*
X0019601Y0190893D01*
X0019817Y0190917D01*
X0020033Y0190936D01*
X0020250Y0190949D01*
X0020468Y0190957D01*
X0020685Y0190960D01*
X0020902Y0190957D01*
X0021120Y0190949D01*
X0021337Y0190936D01*
X0021553Y0190917D01*
X0021769Y0190893D01*
X0021985Y0190864D01*
X0022199Y0190830D01*
X0022413Y0190790D01*
X0022626Y0190745D01*
X0022837Y0190695D01*
X0023048Y0190639D01*
X0023256Y0190579D01*
X0023464Y0190513D01*
X0023669Y0190442D01*
X0023873Y0190366D01*
X0024075Y0190286D01*
X0024275Y0190200D01*
X0024472Y0190110D01*
X0024668Y0190014D01*
X0024861Y0189914D01*
X0025051Y0189809D01*
X0025239Y0189700D01*
X0025424Y0189586D01*
X0025606Y0189467D01*
X0025786Y0189344D01*
X0025962Y0189217D01*
X0026135Y0189085D01*
X0026304Y0188949D01*
X0026471Y0188809D01*
X0026634Y0188665D01*
X0026793Y0188517D01*
X0026949Y0188366D01*
X0027100Y0188210D01*
X0027248Y0188051D01*
X0027392Y0187888D01*
X0027532Y0187721D01*
X0027668Y0187552D01*
X0027800Y0187379D01*
X0027927Y0187203D01*
X0028050Y0187023D01*
X0028169Y0186841D01*
X0028283Y0186656D01*
X0028392Y0186468D01*
X0028497Y0186278D01*
X0028597Y0186085D01*
X0028693Y0185889D01*
X0028783Y0185692D01*
X0028869Y0185492D01*
X0028949Y0185290D01*
X0029025Y0185086D01*
X0029096Y0184881D01*
X0029162Y0184673D01*
X0029222Y0184465D01*
X0029278Y0184254D01*
X0029328Y0184043D01*
X0029373Y0183830D01*
X0029413Y0183616D01*
X0029447Y0183402D01*
X0029476Y0183186D01*
X0029500Y0182970D01*
X0029519Y0182754D01*
X0029532Y0182537D01*
X0029540Y0182319D01*
X0029543Y0182102D01*
X0029540Y0181885D01*
X0029532Y0181667D01*
X0029519Y0181450D01*
X0029500Y0181234D01*
X0029476Y0181018D01*
X0029447Y0180802D01*
X0029413Y0180588D01*
X0029373Y0180374D01*
X0029328Y0180161D01*
X0029278Y0179950D01*
X0029222Y0179739D01*
X0029162Y0179531D01*
X0029096Y0179323D01*
X0029025Y0179118D01*
X0028949Y0178914D01*
X0028869Y0178712D01*
X0028783Y0178512D01*
X0028693Y0178315D01*
X0028597Y0178119D01*
X0028497Y0177926D01*
X0028392Y0177736D01*
X0028283Y0177548D01*
X0028169Y0177363D01*
X0028050Y0177181D01*
X0027927Y0177001D01*
X0027800Y0176825D01*
X0027668Y0176652D01*
X0027532Y0176483D01*
X0027392Y0176316D01*
X0027248Y0176153D01*
X0027100Y0175994D01*
X0026949Y0175838D01*
X0026793Y0175687D01*
X0026634Y0175539D01*
X0026471Y0175395D01*
X0026304Y0175255D01*
X0026135Y0175119D01*
X0025962Y0174987D01*
X0025786Y0174860D01*
X0025606Y0174737D01*
X0025424Y0174618D01*
X0025239Y0174504D01*
X0025051Y0174395D01*
X0024861Y0174290D01*
X0024668Y0174190D01*
X0024472Y0174094D01*
X0024275Y0174004D01*
X0024075Y0173918D01*
X0023873Y0173838D01*
X0023669Y0173762D01*
X0023464Y0173691D01*
X0023256Y0173625D01*
X0023048Y0173565D01*
X0022837Y0173509D01*
X0022626Y0173459D01*
X0022413Y0173414D01*
X0022199Y0173374D01*
X0021985Y0173340D01*
X0021769Y0173311D01*
X0021553Y0173287D01*
X0021337Y0173268D01*
X0021120Y0173255D01*
X0020902Y0173247D01*
X0020685Y0173244D01*
X0020468Y0173247D01*
X0020250Y0173255D01*
X0020033Y0173268D01*
X0019817Y0173287D01*
X0019601Y0173311D01*
X0019385Y0173340D01*
X0019171Y0173374D01*
X0018957Y0173414D01*
X0018744Y0173459D01*
X0018533Y0173509D01*
X0018322Y0173565D01*
X0018114Y0173625D01*
X0017906Y0173691D01*
X0017701Y0173762D01*
X0017497Y0173838D01*
X0017295Y0173918D01*
X0017095Y0174004D01*
X0016898Y0174094D01*
X0016702Y0174190D01*
X0016509Y0174290D01*
X0016319Y0174395D01*
X0016131Y0174504D01*
X0015946Y0174618D01*
X0015764Y0174737D01*
X0015584Y0174860D01*
X0015408Y0174987D01*
X0015235Y0175119D01*
X0015066Y0175255D01*
X0014899Y0175395D01*
X0014736Y0175539D01*
X0014577Y0175687D01*
X0014421Y0175838D01*
X0014270Y0175994D01*
X0014122Y0176153D01*
X0013978Y0176316D01*
X0013838Y0176483D01*
X0013702Y0176652D01*
X0013570Y0176825D01*
X0013443Y0177001D01*
X0013320Y0177181D01*
X0013201Y0177363D01*
X0013087Y0177548D01*
X0012978Y0177736D01*
X0012873Y0177926D01*
X0012773Y0178119D01*
X0012677Y0178315D01*
X0012587Y0178512D01*
X0012501Y0178712D01*
X0012421Y0178914D01*
X0012345Y0179118D01*
X0012274Y0179323D01*
X0012208Y0179531D01*
X0012148Y0179739D01*
X0012092Y0179950D01*
X0012042Y0180161D01*
X0011997Y0180374D01*
X0011957Y0180588D01*
X0011923Y0180802D01*
X0011894Y0181018D01*
X0011870Y0181234D01*
X0011851Y0181450D01*
X0011838Y0181667D01*
X0011830Y0181885D01*
X0011827Y0182102D01*
X0366158Y0178953D02*
X0366161Y0179170D01*
X0366169Y0179388D01*
X0366182Y0179605D01*
X0366201Y0179821D01*
X0366225Y0180037D01*
X0366254Y0180253D01*
X0366288Y0180467D01*
X0366328Y0180681D01*
X0366373Y0180894D01*
X0366423Y0181105D01*
X0366479Y0181316D01*
X0366539Y0181524D01*
X0366605Y0181732D01*
X0366676Y0181937D01*
X0366752Y0182141D01*
X0366832Y0182343D01*
X0366918Y0182543D01*
X0367008Y0182740D01*
X0367104Y0182936D01*
X0367204Y0183129D01*
X0367309Y0183319D01*
X0367418Y0183507D01*
X0367532Y0183692D01*
X0367651Y0183874D01*
X0367774Y0184054D01*
X0367901Y0184230D01*
X0368033Y0184403D01*
X0368169Y0184572D01*
X0368309Y0184739D01*
X0368453Y0184902D01*
X0368601Y0185061D01*
X0368752Y0185217D01*
X0368908Y0185368D01*
X0369067Y0185516D01*
X0369230Y0185660D01*
X0369397Y0185800D01*
X0369566Y0185936D01*
X0369739Y0186068D01*
X0369915Y0186195D01*
X0370095Y0186318D01*
X0370277Y0186437D01*
X0370462Y0186551D01*
X0370650Y0186660D01*
X0370840Y0186765D01*
X0371033Y0186865D01*
X0371229Y0186961D01*
X0371426Y0187051D01*
X0371626Y0187137D01*
X0371828Y0187217D01*
X0372032Y0187293D01*
X0372237Y0187364D01*
X0372445Y0187430D01*
X0372653Y0187490D01*
X0372864Y0187546D01*
X0373075Y0187596D01*
X0373288Y0187641D01*
X0373502Y0187681D01*
X0373716Y0187715D01*
X0373932Y0187744D01*
X0374148Y0187768D01*
X0374364Y0187787D01*
X0374581Y0187800D01*
X0374799Y0187808D01*
X0375016Y0187811D01*
X0375233Y0187808D01*
X0375451Y0187800D01*
X0375668Y0187787D01*
X0375884Y0187768D01*
X0376100Y0187744D01*
X0376316Y0187715D01*
X0376530Y0187681D01*
X0376744Y0187641D01*
X0376957Y0187596D01*
X0377168Y0187546D01*
X0377379Y0187490D01*
X0377587Y0187430D01*
X0377795Y0187364D01*
X0378000Y0187293D01*
X0378204Y0187217D01*
X0378406Y0187137D01*
X0378606Y0187051D01*
X0378803Y0186961D01*
X0378999Y0186865D01*
X0379192Y0186765D01*
X0379382Y0186660D01*
X0379570Y0186551D01*
X0379755Y0186437D01*
X0379937Y0186318D01*
X0380117Y0186195D01*
X0380293Y0186068D01*
X0380466Y0185936D01*
X0380635Y0185800D01*
X0380802Y0185660D01*
X0380965Y0185516D01*
X0381124Y0185368D01*
X0381280Y0185217D01*
X0381431Y0185061D01*
X0381579Y0184902D01*
X0381723Y0184739D01*
X0381863Y0184572D01*
X0381999Y0184403D01*
X0382131Y0184230D01*
X0382258Y0184054D01*
X0382381Y0183874D01*
X0382500Y0183692D01*
X0382614Y0183507D01*
X0382723Y0183319D01*
X0382828Y0183129D01*
X0382928Y0182936D01*
X0383024Y0182740D01*
X0383114Y0182543D01*
X0383200Y0182343D01*
X0383280Y0182141D01*
X0383356Y0181937D01*
X0383427Y0181732D01*
X0383493Y0181524D01*
X0383553Y0181316D01*
X0383609Y0181105D01*
X0383659Y0180894D01*
X0383704Y0180681D01*
X0383744Y0180467D01*
X0383778Y0180253D01*
X0383807Y0180037D01*
X0383831Y0179821D01*
X0383850Y0179605D01*
X0383863Y0179388D01*
X0383871Y0179170D01*
X0383874Y0178953D01*
X0383871Y0178736D01*
X0383863Y0178518D01*
X0383850Y0178301D01*
X0383831Y0178085D01*
X0383807Y0177869D01*
X0383778Y0177653D01*
X0383744Y0177439D01*
X0383704Y0177225D01*
X0383659Y0177012D01*
X0383609Y0176801D01*
X0383553Y0176590D01*
X0383493Y0176382D01*
X0383427Y0176174D01*
X0383356Y0175969D01*
X0383280Y0175765D01*
X0383200Y0175563D01*
X0383114Y0175363D01*
X0383024Y0175166D01*
X0382928Y0174970D01*
X0382828Y0174777D01*
X0382723Y0174587D01*
X0382614Y0174399D01*
X0382500Y0174214D01*
X0382381Y0174032D01*
X0382258Y0173852D01*
X0382131Y0173676D01*
X0381999Y0173503D01*
X0381863Y0173334D01*
X0381723Y0173167D01*
X0381579Y0173004D01*
X0381431Y0172845D01*
X0381280Y0172689D01*
X0381124Y0172538D01*
X0380965Y0172390D01*
X0380802Y0172246D01*
X0380635Y0172106D01*
X0380466Y0171970D01*
X0380293Y0171838D01*
X0380117Y0171711D01*
X0379937Y0171588D01*
X0379755Y0171469D01*
X0379570Y0171355D01*
X0379382Y0171246D01*
X0379192Y0171141D01*
X0378999Y0171041D01*
X0378803Y0170945D01*
X0378606Y0170855D01*
X0378406Y0170769D01*
X0378204Y0170689D01*
X0378000Y0170613D01*
X0377795Y0170542D01*
X0377587Y0170476D01*
X0377379Y0170416D01*
X0377168Y0170360D01*
X0376957Y0170310D01*
X0376744Y0170265D01*
X0376530Y0170225D01*
X0376316Y0170191D01*
X0376100Y0170162D01*
X0375884Y0170138D01*
X0375668Y0170119D01*
X0375451Y0170106D01*
X0375233Y0170098D01*
X0375016Y0170095D01*
X0374799Y0170098D01*
X0374581Y0170106D01*
X0374364Y0170119D01*
X0374148Y0170138D01*
X0373932Y0170162D01*
X0373716Y0170191D01*
X0373502Y0170225D01*
X0373288Y0170265D01*
X0373075Y0170310D01*
X0372864Y0170360D01*
X0372653Y0170416D01*
X0372445Y0170476D01*
X0372237Y0170542D01*
X0372032Y0170613D01*
X0371828Y0170689D01*
X0371626Y0170769D01*
X0371426Y0170855D01*
X0371229Y0170945D01*
X0371033Y0171041D01*
X0370840Y0171141D01*
X0370650Y0171246D01*
X0370462Y0171355D01*
X0370277Y0171469D01*
X0370095Y0171588D01*
X0369915Y0171711D01*
X0369739Y0171838D01*
X0369566Y0171970D01*
X0369397Y0172106D01*
X0369230Y0172246D01*
X0369067Y0172390D01*
X0368908Y0172538D01*
X0368752Y0172689D01*
X0368601Y0172845D01*
X0368453Y0173004D01*
X0368309Y0173167D01*
X0368169Y0173334D01*
X0368033Y0173503D01*
X0367901Y0173676D01*
X0367774Y0173852D01*
X0367651Y0174032D01*
X0367532Y0174214D01*
X0367418Y0174399D01*
X0367309Y0174587D01*
X0367204Y0174777D01*
X0367104Y0174970D01*
X0367008Y0175166D01*
X0366918Y0175363D01*
X0366832Y0175563D01*
X0366752Y0175765D01*
X0366676Y0175969D01*
X0366605Y0176174D01*
X0366539Y0176382D01*
X0366479Y0176590D01*
X0366423Y0176801D01*
X0366373Y0177012D01*
X0366328Y0177225D01*
X0366288Y0177439D01*
X0366254Y0177653D01*
X0366225Y0177869D01*
X0366201Y0178085D01*
X0366182Y0178301D01*
X0366169Y0178518D01*
X0366161Y0178736D01*
X0366158Y0178953D01*
X0366158Y0020685D02*
X0366161Y0020902D01*
X0366169Y0021120D01*
X0366182Y0021337D01*
X0366201Y0021553D01*
X0366225Y0021769D01*
X0366254Y0021985D01*
X0366288Y0022199D01*
X0366328Y0022413D01*
X0366373Y0022626D01*
X0366423Y0022837D01*
X0366479Y0023048D01*
X0366539Y0023256D01*
X0366605Y0023464D01*
X0366676Y0023669D01*
X0366752Y0023873D01*
X0366832Y0024075D01*
X0366918Y0024275D01*
X0367008Y0024472D01*
X0367104Y0024668D01*
X0367204Y0024861D01*
X0367309Y0025051D01*
X0367418Y0025239D01*
X0367532Y0025424D01*
X0367651Y0025606D01*
X0367774Y0025786D01*
X0367901Y0025962D01*
X0368033Y0026135D01*
X0368169Y0026304D01*
X0368309Y0026471D01*
X0368453Y0026634D01*
X0368601Y0026793D01*
X0368752Y0026949D01*
X0368908Y0027100D01*
X0369067Y0027248D01*
X0369230Y0027392D01*
X0369397Y0027532D01*
X0369566Y0027668D01*
X0369739Y0027800D01*
X0369915Y0027927D01*
X0370095Y0028050D01*
X0370277Y0028169D01*
X0370462Y0028283D01*
X0370650Y0028392D01*
X0370840Y0028497D01*
X0371033Y0028597D01*
X0371229Y0028693D01*
X0371426Y0028783D01*
X0371626Y0028869D01*
X0371828Y0028949D01*
X0372032Y0029025D01*
X0372237Y0029096D01*
X0372445Y0029162D01*
X0372653Y0029222D01*
X0372864Y0029278D01*
X0373075Y0029328D01*
X0373288Y0029373D01*
X0373502Y0029413D01*
X0373716Y0029447D01*
X0373932Y0029476D01*
X0374148Y0029500D01*
X0374364Y0029519D01*
X0374581Y0029532D01*
X0374799Y0029540D01*
X0375016Y0029543D01*
X0375233Y0029540D01*
X0375451Y0029532D01*
X0375668Y0029519D01*
X0375884Y0029500D01*
X0376100Y0029476D01*
X0376316Y0029447D01*
X0376530Y0029413D01*
X0376744Y0029373D01*
X0376957Y0029328D01*
X0377168Y0029278D01*
X0377379Y0029222D01*
X0377587Y0029162D01*
X0377795Y0029096D01*
X0378000Y0029025D01*
X0378204Y0028949D01*
X0378406Y0028869D01*
X0378606Y0028783D01*
X0378803Y0028693D01*
X0378999Y0028597D01*
X0379192Y0028497D01*
X0379382Y0028392D01*
X0379570Y0028283D01*
X0379755Y0028169D01*
X0379937Y0028050D01*
X0380117Y0027927D01*
X0380293Y0027800D01*
X0380466Y0027668D01*
X0380635Y0027532D01*
X0380802Y0027392D01*
X0380965Y0027248D01*
X0381124Y0027100D01*
X0381280Y0026949D01*
X0381431Y0026793D01*
X0381579Y0026634D01*
X0381723Y0026471D01*
X0381863Y0026304D01*
X0381999Y0026135D01*
X0382131Y0025962D01*
X0382258Y0025786D01*
X0382381Y0025606D01*
X0382500Y0025424D01*
X0382614Y0025239D01*
X0382723Y0025051D01*
X0382828Y0024861D01*
X0382928Y0024668D01*
X0383024Y0024472D01*
X0383114Y0024275D01*
X0383200Y0024075D01*
X0383280Y0023873D01*
X0383356Y0023669D01*
X0383427Y0023464D01*
X0383493Y0023256D01*
X0383553Y0023048D01*
X0383609Y0022837D01*
X0383659Y0022626D01*
X0383704Y0022413D01*
X0383744Y0022199D01*
X0383778Y0021985D01*
X0383807Y0021769D01*
X0383831Y0021553D01*
X0383850Y0021337D01*
X0383863Y0021120D01*
X0383871Y0020902D01*
X0383874Y0020685D01*
X0383871Y0020468D01*
X0383863Y0020250D01*
X0383850Y0020033D01*
X0383831Y0019817D01*
X0383807Y0019601D01*
X0383778Y0019385D01*
X0383744Y0019171D01*
X0383704Y0018957D01*
X0383659Y0018744D01*
X0383609Y0018533D01*
X0383553Y0018322D01*
X0383493Y0018114D01*
X0383427Y0017906D01*
X0383356Y0017701D01*
X0383280Y0017497D01*
X0383200Y0017295D01*
X0383114Y0017095D01*
X0383024Y0016898D01*
X0382928Y0016702D01*
X0382828Y0016509D01*
X0382723Y0016319D01*
X0382614Y0016131D01*
X0382500Y0015946D01*
X0382381Y0015764D01*
X0382258Y0015584D01*
X0382131Y0015408D01*
X0381999Y0015235D01*
X0381863Y0015066D01*
X0381723Y0014899D01*
X0381579Y0014736D01*
X0381431Y0014577D01*
X0381280Y0014421D01*
X0381124Y0014270D01*
X0380965Y0014122D01*
X0380802Y0013978D01*
X0380635Y0013838D01*
X0380466Y0013702D01*
X0380293Y0013570D01*
X0380117Y0013443D01*
X0379937Y0013320D01*
X0379755Y0013201D01*
X0379570Y0013087D01*
X0379382Y0012978D01*
X0379192Y0012873D01*
X0378999Y0012773D01*
X0378803Y0012677D01*
X0378606Y0012587D01*
X0378406Y0012501D01*
X0378204Y0012421D01*
X0378000Y0012345D01*
X0377795Y0012274D01*
X0377587Y0012208D01*
X0377379Y0012148D01*
X0377168Y0012092D01*
X0376957Y0012042D01*
X0376744Y0011997D01*
X0376530Y0011957D01*
X0376316Y0011923D01*
X0376100Y0011894D01*
X0375884Y0011870D01*
X0375668Y0011851D01*
X0375451Y0011838D01*
X0375233Y0011830D01*
X0375016Y0011827D01*
X0374799Y0011830D01*
X0374581Y0011838D01*
X0374364Y0011851D01*
X0374148Y0011870D01*
X0373932Y0011894D01*
X0373716Y0011923D01*
X0373502Y0011957D01*
X0373288Y0011997D01*
X0373075Y0012042D01*
X0372864Y0012092D01*
X0372653Y0012148D01*
X0372445Y0012208D01*
X0372237Y0012274D01*
X0372032Y0012345D01*
X0371828Y0012421D01*
X0371626Y0012501D01*
X0371426Y0012587D01*
X0371229Y0012677D01*
X0371033Y0012773D01*
X0370840Y0012873D01*
X0370650Y0012978D01*
X0370462Y0013087D01*
X0370277Y0013201D01*
X0370095Y0013320D01*
X0369915Y0013443D01*
X0369739Y0013570D01*
X0369566Y0013702D01*
X0369397Y0013838D01*
X0369230Y0013978D01*
X0369067Y0014122D01*
X0368908Y0014270D01*
X0368752Y0014421D01*
X0368601Y0014577D01*
X0368453Y0014736D01*
X0368309Y0014899D01*
X0368169Y0015066D01*
X0368033Y0015235D01*
X0367901Y0015408D01*
X0367774Y0015584D01*
X0367651Y0015764D01*
X0367532Y0015946D01*
X0367418Y0016131D01*
X0367309Y0016319D01*
X0367204Y0016509D01*
X0367104Y0016702D01*
X0367008Y0016898D01*
X0366918Y0017095D01*
X0366832Y0017295D01*
X0366752Y0017497D01*
X0366676Y0017701D01*
X0366605Y0017906D01*
X0366539Y0018114D01*
X0366479Y0018322D01*
X0366423Y0018533D01*
X0366373Y0018744D01*
X0366328Y0018957D01*
X0366288Y0019171D01*
X0366254Y0019385D01*
X0366225Y0019601D01*
X0366201Y0019817D01*
X0366182Y0020033D01*
X0366169Y0020250D01*
X0366161Y0020468D01*
X0366158Y0020685D01*
D11*
X0062409Y0024330D02*
X0061642Y0023562D01*
X0060107Y0023562D01*
X0059340Y0024330D01*
X0057806Y0023562D02*
X0054736Y0023562D01*
X0056271Y0023562D02*
X0056271Y0028166D01*
X0057806Y0026631D01*
X0059340Y0027399D02*
X0060107Y0028166D01*
X0061642Y0028166D01*
X0062409Y0027399D01*
X0062409Y0024330D01*
D12*
X0064602Y0049661D02*
X0052202Y0049661D01*
X0052126Y0049663D01*
X0052050Y0049669D01*
X0051975Y0049678D01*
X0051900Y0049692D01*
X0051826Y0049709D01*
X0051753Y0049730D01*
X0051681Y0049754D01*
X0051610Y0049783D01*
X0051541Y0049814D01*
X0051474Y0049849D01*
X0051409Y0049888D01*
X0051345Y0049930D01*
X0051284Y0049975D01*
X0051225Y0050023D01*
X0051169Y0050074D01*
X0051115Y0050128D01*
X0051064Y0050184D01*
X0051016Y0050243D01*
X0050971Y0050304D01*
X0050929Y0050368D01*
X0050890Y0050433D01*
X0050855Y0050500D01*
X0050824Y0050569D01*
X0050795Y0050640D01*
X0050771Y0050712D01*
X0050750Y0050785D01*
X0050733Y0050859D01*
X0050719Y0050934D01*
X0050710Y0051009D01*
X0050704Y0051085D01*
X0050702Y0051161D01*
X0064602Y0049661D02*
X0064678Y0049663D01*
X0064754Y0049669D01*
X0064829Y0049678D01*
X0064904Y0049692D01*
X0064978Y0049709D01*
X0065051Y0049730D01*
X0065123Y0049754D01*
X0065194Y0049783D01*
X0065263Y0049814D01*
X0065330Y0049849D01*
X0065395Y0049888D01*
X0065459Y0049930D01*
X0065520Y0049975D01*
X0065579Y0050023D01*
X0065635Y0050074D01*
X0065689Y0050128D01*
X0065740Y0050184D01*
X0065788Y0050243D01*
X0065833Y0050304D01*
X0065875Y0050368D01*
X0065914Y0050433D01*
X0065949Y0050500D01*
X0065980Y0050569D01*
X0066009Y0050640D01*
X0066033Y0050712D01*
X0066054Y0050785D01*
X0066071Y0050859D01*
X0066085Y0050934D01*
X0066094Y0051009D01*
X0066100Y0051085D01*
X0066102Y0051161D01*
X0066102Y0088161D02*
X0066100Y0088237D01*
X0066094Y0088313D01*
X0066085Y0088388D01*
X0066071Y0088463D01*
X0066054Y0088537D01*
X0066033Y0088610D01*
X0066009Y0088682D01*
X0065980Y0088753D01*
X0065949Y0088822D01*
X0065914Y0088889D01*
X0065875Y0088954D01*
X0065833Y0089018D01*
X0065788Y0089079D01*
X0065740Y0089138D01*
X0065689Y0089194D01*
X0065635Y0089248D01*
X0065579Y0089299D01*
X0065520Y0089347D01*
X0065459Y0089392D01*
X0065395Y0089434D01*
X0065330Y0089473D01*
X0065263Y0089508D01*
X0065194Y0089539D01*
X0065123Y0089568D01*
X0065051Y0089592D01*
X0064978Y0089613D01*
X0064904Y0089630D01*
X0064829Y0089644D01*
X0064754Y0089653D01*
X0064678Y0089659D01*
X0064602Y0089661D01*
X0060402Y0089661D01*
X0056402Y0089661D01*
X0052202Y0089661D01*
X0052126Y0089659D01*
X0052050Y0089653D01*
X0051975Y0089644D01*
X0051900Y0089630D01*
X0051826Y0089613D01*
X0051753Y0089592D01*
X0051681Y0089568D01*
X0051610Y0089539D01*
X0051541Y0089508D01*
X0051474Y0089473D01*
X0051409Y0089434D01*
X0051345Y0089392D01*
X0051284Y0089347D01*
X0051225Y0089299D01*
X0051169Y0089248D01*
X0051115Y0089194D01*
X0051064Y0089138D01*
X0051016Y0089079D01*
X0050971Y0089018D01*
X0050929Y0088954D01*
X0050890Y0088889D01*
X0050855Y0088822D01*
X0050824Y0088753D01*
X0050795Y0088682D01*
X0050771Y0088610D01*
X0050750Y0088537D01*
X0050733Y0088463D01*
X0050719Y0088388D01*
X0050710Y0088313D01*
X0050704Y0088237D01*
X0050702Y0088161D01*
X0056402Y0089661D02*
X0056404Y0089573D01*
X0056410Y0089484D01*
X0056420Y0089396D01*
X0056433Y0089309D01*
X0056451Y0089222D01*
X0056472Y0089136D01*
X0056497Y0089051D01*
X0056526Y0088968D01*
X0056559Y0088885D01*
X0056595Y0088805D01*
X0056634Y0088726D01*
X0056677Y0088648D01*
X0056724Y0088573D01*
X0056774Y0088500D01*
X0056827Y0088429D01*
X0056883Y0088360D01*
X0056942Y0088294D01*
X0057004Y0088231D01*
X0057068Y0088171D01*
X0057135Y0088113D01*
X0057205Y0088059D01*
X0057277Y0088007D01*
X0057351Y0087959D01*
X0057428Y0087914D01*
X0057506Y0087873D01*
X0057586Y0087835D01*
X0057667Y0087801D01*
X0057750Y0087770D01*
X0057835Y0087743D01*
X0057920Y0087720D01*
X0058006Y0087701D01*
X0058094Y0087685D01*
X0058181Y0087673D01*
X0058269Y0087665D01*
X0058358Y0087661D01*
X0058446Y0087661D01*
X0058535Y0087665D01*
X0058623Y0087673D01*
X0058710Y0087685D01*
X0058798Y0087701D01*
X0058884Y0087720D01*
X0058969Y0087743D01*
X0059054Y0087770D01*
X0059137Y0087801D01*
X0059218Y0087835D01*
X0059298Y0087873D01*
X0059376Y0087914D01*
X0059453Y0087959D01*
X0059527Y0088007D01*
X0059599Y0088059D01*
X0059669Y0088113D01*
X0059736Y0088171D01*
X0059800Y0088231D01*
X0059862Y0088294D01*
X0059921Y0088360D01*
X0059977Y0088429D01*
X0060030Y0088500D01*
X0060080Y0088573D01*
X0060127Y0088648D01*
X0060170Y0088726D01*
X0060209Y0088805D01*
X0060245Y0088885D01*
X0060278Y0088968D01*
X0060307Y0089051D01*
X0060332Y0089136D01*
X0060353Y0089222D01*
X0060371Y0089309D01*
X0060384Y0089396D01*
X0060394Y0089484D01*
X0060400Y0089573D01*
X0060402Y0089661D01*
X0064602Y0139465D02*
X0052202Y0139465D01*
X0052126Y0139467D01*
X0052050Y0139473D01*
X0051975Y0139482D01*
X0051900Y0139496D01*
X0051826Y0139513D01*
X0051753Y0139534D01*
X0051681Y0139558D01*
X0051610Y0139587D01*
X0051541Y0139618D01*
X0051474Y0139653D01*
X0051409Y0139692D01*
X0051345Y0139734D01*
X0051284Y0139779D01*
X0051225Y0139827D01*
X0051169Y0139878D01*
X0051115Y0139932D01*
X0051064Y0139988D01*
X0051016Y0140047D01*
X0050971Y0140108D01*
X0050929Y0140172D01*
X0050890Y0140237D01*
X0050855Y0140304D01*
X0050824Y0140373D01*
X0050795Y0140444D01*
X0050771Y0140516D01*
X0050750Y0140589D01*
X0050733Y0140663D01*
X0050719Y0140738D01*
X0050710Y0140813D01*
X0050704Y0140889D01*
X0050702Y0140965D01*
X0064602Y0139465D02*
X0064678Y0139467D01*
X0064754Y0139473D01*
X0064829Y0139482D01*
X0064904Y0139496D01*
X0064978Y0139513D01*
X0065051Y0139534D01*
X0065123Y0139558D01*
X0065194Y0139587D01*
X0065263Y0139618D01*
X0065330Y0139653D01*
X0065395Y0139692D01*
X0065459Y0139734D01*
X0065520Y0139779D01*
X0065579Y0139827D01*
X0065635Y0139878D01*
X0065689Y0139932D01*
X0065740Y0139988D01*
X0065788Y0140047D01*
X0065833Y0140108D01*
X0065875Y0140172D01*
X0065914Y0140237D01*
X0065949Y0140304D01*
X0065980Y0140373D01*
X0066009Y0140444D01*
X0066033Y0140516D01*
X0066054Y0140589D01*
X0066071Y0140663D01*
X0066085Y0140738D01*
X0066094Y0140813D01*
X0066100Y0140889D01*
X0066102Y0140965D01*
X0066102Y0177965D02*
X0066100Y0178041D01*
X0066094Y0178117D01*
X0066085Y0178192D01*
X0066071Y0178267D01*
X0066054Y0178341D01*
X0066033Y0178414D01*
X0066009Y0178486D01*
X0065980Y0178557D01*
X0065949Y0178626D01*
X0065914Y0178693D01*
X0065875Y0178758D01*
X0065833Y0178822D01*
X0065788Y0178883D01*
X0065740Y0178942D01*
X0065689Y0178998D01*
X0065635Y0179052D01*
X0065579Y0179103D01*
X0065520Y0179151D01*
X0065459Y0179196D01*
X0065395Y0179238D01*
X0065330Y0179277D01*
X0065263Y0179312D01*
X0065194Y0179343D01*
X0065123Y0179372D01*
X0065051Y0179396D01*
X0064978Y0179417D01*
X0064904Y0179434D01*
X0064829Y0179448D01*
X0064754Y0179457D01*
X0064678Y0179463D01*
X0064602Y0179465D01*
X0060402Y0179465D01*
X0056402Y0179465D01*
X0052202Y0179465D01*
X0052126Y0179463D01*
X0052050Y0179457D01*
X0051975Y0179448D01*
X0051900Y0179434D01*
X0051826Y0179417D01*
X0051753Y0179396D01*
X0051681Y0179372D01*
X0051610Y0179343D01*
X0051541Y0179312D01*
X0051474Y0179277D01*
X0051409Y0179238D01*
X0051345Y0179196D01*
X0051284Y0179151D01*
X0051225Y0179103D01*
X0051169Y0179052D01*
X0051115Y0178998D01*
X0051064Y0178942D01*
X0051016Y0178883D01*
X0050971Y0178822D01*
X0050929Y0178758D01*
X0050890Y0178693D01*
X0050855Y0178626D01*
X0050824Y0178557D01*
X0050795Y0178486D01*
X0050771Y0178414D01*
X0050750Y0178341D01*
X0050733Y0178267D01*
X0050719Y0178192D01*
X0050710Y0178117D01*
X0050704Y0178041D01*
X0050702Y0177965D01*
X0056402Y0179465D02*
X0056404Y0179377D01*
X0056410Y0179288D01*
X0056420Y0179200D01*
X0056433Y0179113D01*
X0056451Y0179026D01*
X0056472Y0178940D01*
X0056497Y0178855D01*
X0056526Y0178772D01*
X0056559Y0178689D01*
X0056595Y0178609D01*
X0056634Y0178530D01*
X0056677Y0178452D01*
X0056724Y0178377D01*
X0056774Y0178304D01*
X0056827Y0178233D01*
X0056883Y0178164D01*
X0056942Y0178098D01*
X0057004Y0178035D01*
X0057068Y0177975D01*
X0057135Y0177917D01*
X0057205Y0177863D01*
X0057277Y0177811D01*
X0057351Y0177763D01*
X0057428Y0177718D01*
X0057506Y0177677D01*
X0057586Y0177639D01*
X0057667Y0177605D01*
X0057750Y0177574D01*
X0057835Y0177547D01*
X0057920Y0177524D01*
X0058006Y0177505D01*
X0058094Y0177489D01*
X0058181Y0177477D01*
X0058269Y0177469D01*
X0058358Y0177465D01*
X0058446Y0177465D01*
X0058535Y0177469D01*
X0058623Y0177477D01*
X0058710Y0177489D01*
X0058798Y0177505D01*
X0058884Y0177524D01*
X0058969Y0177547D01*
X0059054Y0177574D01*
X0059137Y0177605D01*
X0059218Y0177639D01*
X0059298Y0177677D01*
X0059376Y0177718D01*
X0059453Y0177763D01*
X0059527Y0177811D01*
X0059599Y0177863D01*
X0059669Y0177917D01*
X0059736Y0177975D01*
X0059800Y0178035D01*
X0059862Y0178098D01*
X0059921Y0178164D01*
X0059977Y0178233D01*
X0060030Y0178304D01*
X0060080Y0178377D01*
X0060127Y0178452D01*
X0060170Y0178530D01*
X0060209Y0178609D01*
X0060245Y0178689D01*
X0060278Y0178772D01*
X0060307Y0178855D01*
X0060332Y0178940D01*
X0060353Y0179026D01*
X0060371Y0179113D01*
X0060384Y0179200D01*
X0060394Y0179288D01*
X0060400Y0179377D01*
X0060402Y0179465D01*
D13*
X0064702Y0179465D02*
X0064702Y0139465D01*
X0064702Y0089661D02*
X0064702Y0049661D01*
D14*
X0064901Y0091411D02*
X0064901Y0095915D01*
X0065652Y0095915D02*
X0064150Y0095915D01*
X0062582Y0095165D02*
X0062582Y0092162D01*
X0061832Y0091411D01*
X0060330Y0091411D01*
X0059580Y0092162D01*
X0057978Y0091411D02*
X0054976Y0094414D01*
X0054976Y0095165D01*
X0055726Y0095915D01*
X0057228Y0095915D01*
X0057978Y0095165D01*
X0059580Y0095165D02*
X0060330Y0095915D01*
X0061832Y0095915D01*
X0062582Y0095165D01*
X0064150Y0091411D02*
X0065652Y0091411D01*
X0057978Y0091411D02*
X0054976Y0091411D01*
X0054976Y0181215D02*
X0057978Y0181215D01*
X0056477Y0181215D02*
X0056477Y0185718D01*
X0057978Y0184217D01*
X0059580Y0184968D02*
X0060330Y0185718D01*
X0061832Y0185718D01*
X0062582Y0184968D01*
X0062582Y0181965D01*
X0061832Y0181215D01*
X0060330Y0181215D01*
X0059580Y0181965D01*
X0064150Y0181215D02*
X0065652Y0181215D01*
X0064901Y0181215D02*
X0064901Y0185718D01*
X0065652Y0185718D02*
X0064150Y0185718D01*
M02*
